<svg xmlns="http://www.w3.org/2000/svg" viewBox="0 0 426.85 330.25"><defs><style>.cls-1{fill:none;}.cls-1,.cls-2{stroke:#fff;stroke-miterlimit:10;stroke-width:3px;}.cls-2{fill:#fff;}</style></defs><g id="Calque_2" data-name="Calque 2"><g id="Calque_1-2" data-name="Calque 1"><path class="cls-1" d="M1.5,132.75a128.2,128.2,0,0,1,1.39-15c.66-4.32,2.66-15.91,11.66-37.61,5.69-13.74,10.62-22.9,17.94-36.53C41.17,27.46,48,16.45,60,7,65.82,2.32,69.39.85,72.5,1.75c8,2.34,9.48,19.69,10,26,5.07,61.6-49.13,212.42-62.19,249.31C7.87,312.2,2.71,328.82,2.5,328.75s25.43-82.24,63-182c4.8-12.76,8.87-23.34,11.71-30.67C88,88,98,74.24,103.5,67.75c2.87-3.36,6.31-6.83,9-6,4.45,1.38,4.15,13.9,4,19C115.36,118.28,93.65,177.27,89.72,188c-11.51,31.47-19.3,56.37-29.36,88.52C47.7,317,47.52,321.15,47.23,321.08c-1.26-.32,34.13-123.9,55.42-158.6,1.9-3.09,5.7-8.76,12.5-18.9,5.58-8.33,12.1-17.9,22.11-27.88,8.11-8.09,10.73-8.68,12.17-8,3.14,1.46,2.25,9.53,1.92,12.5-2.43,22.14-27.76,97-39,129.77a220.26,220.26,0,0,0-7.11,26.58,288.19,288.19,0,0,0-6.41,51.26"/><path class="cls-1" d="M116.08,325.42c2.79,1.31,9.23,3.84,15.94,1.59,6.41-2.15,9.57-7.5,13.76-14.84,1.9-3.33,4.49-8.49,10.14-28.41,2.61-9.17,4.89-17.21,4.74-17.25s-6.48,19.38-9.29,43c-1.75,14.67-.52,17,.84,17.69,4.19,2,14.29-9.88,23.11-21.78,0,0,57.46-80.17,69.53-168.83.43-3.16,1.35-10.28-1.33-11.55-.83-.4-2.72-.55-7.11,3.55C218.22,145.58,206,178,206,178c-9.71,25.77-14.56,38.65-19.21,57.46a389,389,0,0,0-7.46,38.27q-8.41,43.8,1.09,48.11,12.52,5.68,56.19-57.26s3.73-4.77,8.39-15.19c3.28-7.35,3.11-9.33,2.27-10.44-2-2.6-8.41-1.24-12.21.27-15,5.92-20,26.08-21.71,33.06a66.76,66.76,0,0,0-1.16,25.15c.88,6.09,2.31,16,7.56,17.48,4.28,1.21,9.17-3.71,11.15-5.76,20.3-20.95,20.82-68.09,20.15-68.16-.25,0,.09,6.69-3.55,31.1-.93,6.22-2,13.24-1.11,22.64.48,4.88,1.51,15.35,6,16.45,2.65.65,5.55-2.22,7.55-4.44,13.81-15.39,15.37-34.41,28.87-56,2.09-3.33,8.5-13.58,11.55-12.44,2.22.82,1.73,7.29,1.34,11.55-2.41,25.73-9.06,51.61-9.33,51.53s6.23-20.19,10.91-33.53c2.34-6.67,5.52-15.33,12.75-24.3,2.84-3.53,9.1-11.31,12.91-9.85,3.65,1.41,3.43,10.74,3.28,17.12,0,1.9-.21,5.76-2,15.93-2.56,14.4-4.42,19-1.47,23.26a10.86,10.86,0,0,0,5.5,4c10.24,2.89,22.39-15.24,41.65-44,5.56-8.3,10.21-19.29,6.81-22.69-2.81-2.81-10.77.18-15.6,3.47-8.42,5.75-11,14.94-12.79,21.52-2.72,10.15-6.64,34.47,4.57,40.57,5.06,2.76,11.06.63,13.11-.1,16.1-5.73,19.12-28.74,19.56-32.11,1.68-12.82-.79-31.05-8.85-33.35-4.17-1.19-9.86,1.89-10.71,5.51-1.19,5.1,7.14,11.36,12.64,13.87,16.38,7.47,36-5.3,40-8"/><circle class="cls-2" cx="170.47" cy="235.55" r="2.2"/><circle class="cls-2" cx="422.55" cy="283.13" r="2.81"/></g></g></svg>