<svg xmlns="http://www.w3.org/2000/svg" viewBox="0 0 425.01 336.12"><defs><style>.cls-1{fill:#fff;}</style></defs><g id="Calque_2" data-name="Calque 2"><g id="Calque_1-2" data-name="Calque 1"><g id="Calque_2-2" data-name="Calque 2"><g id="Calque_1-2-2" data-name="Calque 1-2"><path class="cls-1" d="M2,136.85c.8-17.53,5.88-33.62,12.65-49.91,4.66-11.23,10.15-22,15.89-32.74,5-9.27,9.91-18.67,16.39-27A76.9,76.9,0,0,1,56.48,17C60,13.87,64.66,9.21,69.61,8.88c8.19-.54,10.1,11.52,10.91,17.38,1.67,12.16.7,24.47-.86,36.59-4.35,33.58-13.27,66.63-22.74,99.07C48.14,192,38.37,221.75,28.08,251.33c-4.58,13.17-9.3,26.28-13.88,39.44q-4.72,13.64-9.32,27.3c-.78,2.33-1.55,4.66-2.35,7-.22.67-1.09,2.62-.73,2.25L3,330.46c.17,2.2-.82,5.81-.07,3.72.42-1.16.73-2.37,1.09-3.55Q6,324.42,8,318.23q7.06-22,14.49-43.91Q45.82,205.16,71.87,136.9c7.1-18.52,14-37.33,25.28-53.81,2.58-3.77,9.81-15.61,14.91-13.94,5.73,1.88,2.8,19.09,2.31,23.41-3.66,32.25-14.37,63.89-25.54,94.23C73.66,228,59.9,270.12,48.29,312.46a63.14,63.14,0,0,0-2,7.53c-.1.76,0-.23,0-.11,0-1.68,1.31,6,1.23,6,.17.14-.3.69,0-.14A12,12,0,0,0,48,324c2.1-9,4.8-17.85,7.41-26.7,8.83-29.94,18.35-59.77,29.51-88.94,4.64-12.13,9.43-24.45,15.81-35.8,3.36-6,7.36-11.62,11.18-17.31,6.24-9.29,12.48-18.6,20-26.95,2.1-2.34,13-16.41,17.44-13,2.93,2.27-.82,14-1.51,17C144,148.64,139,164.71,134,180.7c-11.43,36.27-26.3,72-32.61,109.67a306.4,306.4,0,0,0-3.95,39.19c0,1.06-.44,4.89.7,5.53s1.2-2.71,1.21-3.14a285.56,285.56,0,0,1,15.16-81.42c6-17.62,11.92-35.27,17.6-53S143.41,161.9,148,143.79a143.82,143.82,0,0,0,3.67-17.9c.5-4.18,2.7-18.21-3-19.94-1.75-.54-3.66.92-5,1.85-5.1,3.57-9.45,8.5-13.52,13.16-7.69,8.79-14.08,18.56-20.56,28.24a209.29,209.29,0,0,0-19.12,35c-13.09,30.85-23.31,63-33,95.08-3.49,11.52-6.94,23.07-10,34.72a57.18,57.18,0,0,0-1.64,7.31c-.15,1.22-.49,8.72,1.48,6.35,1-1.19,1.19-4.65,1.56-6,1.71-6.44,3.61-12.83,5.53-19.21q11.59-38.55,24.44-76.74c12.1-35.83,26.25-70.9,33.84-108.1a208.27,208.27,0,0,0,4.11-29.09c.47-7.85,1.33-17.42-1.78-24.85-3.69-8.79-12,2.11-15.08,6.16A132.09,132.09,0,0,0,88,89c-11.64,22.12-19.56,46.41-28.26,69.79q-14.17,38.1-27.51,76.52c-10.35,29.77-20.63,59.63-29.83,89.78a20.33,20.33,0,0,0-1.25,7.79c0,.26.36,4,1.22,3.14,1.57-1.61,2.14-5.92,2.81-7.9q3.93-11.77,8-23.5c4.72-13.69,9.62-27.33,14.41-41,10.93-31.26,21.32-62.72,30.58-94.52,9.95-34.13,19.34-68.92,23.59-104.29,1.64-13.62,2.34-27.35.79-41-.77-6.84-1.77-16.22-6.89-21.38C69-4.31,59.81,4.74,54.89,9.27,46.2,17.3,40,27.37,34.27,37.65c-6.59,12-13,24.05-18.5,36.57-8.5,19.46-14.7,39-15.67,60.24,0,1.06-.44,4.89.7,5.53S2,137.28,2,136.85Z"/><path class="cls-1" d="M115.66,332.75c8.67,3.88,18.11,3.13,24.31-4.52a61.44,61.44,0,0,0,8.44-14.48A186,186,0,0,0,155.54,292c2.08-7.3,6.12-16,5.57-23.75,0-.17-.53-4.13-1.21-3.15-1.27,1.82-1.64,4.68-2.23,6.76-1.76,6.16-3.24,12.4-4.5,18.67-2.47,12.3-5.85,26.58-3.81,39.17.27,1.64.58,4.13,2.3,4.94,3.64,1.71,9.17-4.86,11.14-6.93A143.54,143.54,0,0,0,177,309.87a441.72,441.72,0,0,0,57.3-119.23A319.19,319.19,0,0,0,244.51,146c.56-3.68,4.3-26-4.48-22.15-5.06,2.23-9.38,8.27-12.68,12.51a134.67,134.67,0,0,0-11,16.78,187.27,187.27,0,0,0-11,23.09c-9.64,24.51-18.07,49.26-23.32,75.11-3.26,16.07-6.45,32.55-7.73,48.92-.61,7.86-1.77,19.22,2.74,26.28,8.27,12.95,31.93-18.85,36.17-24.05,13.8-16.91,27.41-34.83,39-53.38a12.3,12.3,0,0,0,1.84-8.93c-.07-.47-.28-2.65-1.11-2.07-3.56,2.48-4.42,6.82-6.6,10.2l1.21,3.15c.46,5.18-.14,3.81.33,1.33.15-.78.28-1.59.37-2.37a40,40,0,0,0,.3-6.29c-.1-3.24-.3-7.08-4-8-7.52-1.78-16.31,4.38-20.78,9.8-9.91,12-13.69,30.37-13.62,45.52,0,8.3.66,18.59,4.46,26.17,4.11,8.21,11.29,4,16.16-1.16,11-11.62,15.75-28.27,18.46-43.65a164.13,164.13,0,0,0,2.42-21.54c.11-2.5,1.21-9.64-.78-11.69a.29.29,0,0,0-.52,0c-1.22,1.16-.84,5.09-1,6.69-.45,6.47-1.3,12.92-2.2,19.35-2.13,15.3-5.47,33.31.58,48.22,6.94,17.13,24-19.31,26.41-25.19,4-9.85,7.86-19.77,13.38-28.93,1.51-2.51,8.55-15.61,12.13-13.85,2.55,1.25-.61,15.19-1,17.83-.84,6-1.86,11.89-3,17.79-.85,4.29-1.76,8.58-2.76,12.84-.36,1.49-.83,3-1.11,4.51-.07.37-.65,1.82-.26,1.24l1.25,4.34c0,4.87-.17,2.57.47.48.49-1.61,1-3.22,1.51-4.82q2.52-8,5.19-15.85c3.55-10.55,6.93-21.15,13.52-30.29,2.67-3.7,5.69-7.66,9.26-10.56,6.22-5,7.95.13,8,6.34.08,8.3-1.85,17.37-3.55,26.26-1.19,6.21-3,14.29.08,20.25s9.51,6.73,14.79,3.53c7.32-4.43,12.7-12.37,17.61-19.15,7.07-9.77,14.77-19.85,20.2-30.63a37.51,37.51,0,0,0,4.22-13.29c.3-3.07.69-8.31-1.74-10.71-2.74-2.7-7.83-.73-10.77.54A28,28,0,0,0,359,237c-4.4,6.79-6.37,15.18-7.75,23.07-1.47,8.43-2.15,17.24-.89,25.75,1.12,7.56,4.47,15.79,13.35,16,8.51.21,16.08-5.39,20.41-12.33,7.44-12,9.22-27.64,8-41.38-.61-6.72-2-20-10-22.25-10.5-3-13.92,10.6-10.51,17.86,4.57,9.73,18,13.79,27.8,12.6,9-1.09,17.45-5.23,24.87-10.22,1.69-1.13.26-9.21-.52-8.68-11.89,8-28.35,14.35-41.91,6.74a31.48,31.48,0,0,1-5.87-4.25c-.7-.64-1.5-2-2.29-2.41-2.44-1.34,2.19-.76-1.12.81,1.63-.77,2.67-2.59,4.68-3.23a7.7,7.7,0,0,1,6.22.39c6.65,3.69,7.28,15.37,7,21.91-.4,11-4.4,23.95-13.35,30.85-5.72,4.41-15.9,7.2-21.44,1.12-4.9-5.39-4.23-13.85-3.34-20.52s2.46-13.86,5.47-20a27.39,27.39,0,0,1,8.93-10.6c3.27-2.26,9-5.35,13.19-4.33,2.77.68,1.68,2.11.87,4.15a53.85,53.85,0,0,1-3.23,6.61c-3,5.22-6.57,10.14-9.94,15.12a254.86,254.86,0,0,1-16,21.95c-3.53,4.18-8.07,9.64-13.7,10.92a8.16,8.16,0,0,1-6.55-1.22,9.19,9.19,0,0,1-3.6-3.94c-.46-1-.1-.18-.07.24a13.1,13.1,0,0,1,.42-2.89c2.51-14.68,6.15-29.29,4.07-44.3-.34-2.44-.81-6.41-3.14-7.87-2.84-1.77-6.27,1.5-8.21,3.32a70.06,70.06,0,0,0-15.94,23.84c-3.76,9-6.59,18.44-9.6,27.7-1.72,5.33-4.48,11.26-4.51,17,0,.13.58,5.34,1.25,4.34,1.76-2.61,2.06-7.23,2.74-10.2,1.75-7.67,3.23-15.39,4.5-23.14,1.49-9.1,3-18.45,3.13-27.68,0-2.73.4-12.71-4.59-10.51-4.28,1.88-7.45,8.37-9.8,12.15a160.52,160.52,0,0,0-12.21,24.91c-3.28,8.09-6.34,16.37-11.1,23.73-3,4.58-12.21,17.89-16.17,7.55-5.6-14.6.24-32.69,1.87-47.54.38-3.47,1.55-8,1-11.48,0-.22.16-.77.05-1,.55,1-1.52.44-1.7.53.07,0,0-.4,0,.76,0,.67,0,1.34-.05,2a127.55,127.55,0,0,1-6,34.33,71.17,71.17,0,0,1-9.14,19.22c-2.94,4.17-9.27,12.78-15.23,11-4.2-1.26-5.3-7.1-6-10.76a56.15,56.15,0,0,1-.86-18,73.64,73.64,0,0,1,5.6-19.83c3.18-7.21,8.07-14.23,15.41-17.65,3.3-1.55,7.34-2.63,11-2.09,2.85.43,1.69,1.8,1.34,4.05a19,19,0,0,0-.24,4.64c0,.14.57,4.14,1.22,3.14,2.17-3.35,3.11-7.76,6.6-10.2l-1.12-2.07,0,.08.35-6.16c-.88,2.56-3.17,5.07-4.67,7.28q-4.47,6.56-9.09,13c-5.17,7.25-10.41,14.46-15.79,21.57-6.44,8.52-13.08,16.94-20.33,24.8C197.93,310.56,192,317.53,185,320c-16.84,6-5.51-39.88-4.71-45a386.8,386.8,0,0,1,20.14-75.34c6.19-16.66,12.6-32.93,22.53-47.83,2.23-3.35,15.71-23.37,20.33-19.16,1.32,1.21-.16,6.49-.37,7.89q-.8,5.37-1.83,10.7-1.89,9.84-4.44,19.55c-11.09,42.53-30.3,83.27-53.72,120.38-2.47,3.92-5,7.84-7.65,11.63-5.2,7.42-11.24,16.41-18.89,21.48-1.81,1.2-4.19,2.47-5.41.24-.91-1.67.32-6.32.51-8q.75-6.92,2-13.78c1.2-6.89,2.71-13.74,4.49-20.5.57-2.14,1.16-4.27,1.82-6.39.15-.47,1-2.58.65-2.11l-1.22-3.14c0-.21.9-5,.1-3.47a9.5,9.5,0,0,0-.53,2c-.44,1.67-.92,3.34-1.38,5-1.45,5.13-2.87,10.27-4.39,15.38a145.8,145.8,0,0,1-6,17.29,54.81,54.81,0,0,1-8,13.2c-6.11,7.16-15.23,7.33-23.36,3.7-.29-.13-2.13,8.05,0,9Z"/><circle cx="168.76" cy="237.15" r="0.9"/><path class="cls-1" d="M168.76,240.75a1.16,1.16,0,0,1,.45.12l-.26-.16a1,1,0,0,1,.32.33l-.23-.46q.59,1.17-.34-2.23V236c.62-2.28.73-3,.34-2.24l.23-.45a1.22,1.22,0,0,1-.32.32l.26-.16a1,1,0,0,1-.91,0l.27.16a1.12,1.12,0,0,1-.33-.32l.24.45c-.39-.78-.28,0,.33,2.24v2.39q-.92,3.41-.33,2.23l-.24.46a1,1,0,0,1,.33-.33l-.27.16a1.21,1.21,0,0,1,.46-.12c.44,0,.65-1.11.7-1.32a14.16,14.16,0,0,0,.29-3.18,13.6,13.6,0,0,0-.29-3.18c-.08-.31-.24-1.34-.7-1.32a1.44,1.44,0,0,0-1,.57,4.06,4.06,0,0,0-.56,1.46,18.53,18.53,0,0,0,0,6.75,4,4,0,0,0,.56,1.45,1.37,1.37,0,0,0,1,.57,1.35,1.35,0,0,0,1-.53,4.05,4.05,0,0,0,.58-1.45,14.75,14.75,0,0,0,.3-2.82,16,16,0,0,0-.29-4,4.36,4.36,0,0,0-.54-1.42,1.39,1.39,0,0,0-1-.61c-.43,0-.67,1.17-.7,1.32a17.58,17.58,0,0,0,0,6.36C168.15,239.78,168.28,240.73,168.76,240.75Z"/><circle cx="420.36" cy="287.65" r="1.1"/><path class="cls-1" d="M420.36,291.05a1.33,1.33,0,0,1,.55.15l-.26-.16a1.27,1.27,0,0,1,.4.4l-.24-.46c.39.78.29.07-.31-2.13v-2.39c.6-2.2.7-2.91.31-2.14l.24-.45a1.35,1.35,0,0,1-.4.39l.26-.16a1.15,1.15,0,0,1-1.11,0l.27.16a1.35,1.35,0,0,1-.4-.39l.24.45c-.39-.77-.29-.06.3,2.14v2.39q-.88,3.3-.3,2.13l-.24.46a1.27,1.27,0,0,1,.4-.4l-.27.16a1.37,1.37,0,0,1,.56-.15c.44,0,.65-1.11.7-1.32a14.16,14.16,0,0,0,.29-3.18,13.6,13.6,0,0,0-.29-3.18c-.08-.31-.24-1.34-.7-1.32a1.64,1.64,0,0,0-1.18.66,4.24,4.24,0,0,0-.6,1.52,19,19,0,0,0,0,6.84,4.17,4.17,0,0,0,.6,1.52,1.56,1.56,0,0,0,1.18.66,1.54,1.54,0,0,0,1.15-.61,4.14,4.14,0,0,0,.61-1.51,14.76,14.76,0,0,0,.31-2.88,16,16,0,0,0-.3-4,4.52,4.52,0,0,0-.56-1.47,1.58,1.58,0,0,0-1.21-.71c-.43,0-.67,1.17-.7,1.32a17.58,17.58,0,0,0,0,6.36C419.75,290.08,419.88,291,420.36,291.05Z"/></g></g></g></g></svg>