<?xml version="1.0" encoding="utf-8"?>
<!-- Generator: Adobe Illustrator 25.2.3, SVG Export Plug-In . SVG Version: 6.00 Build 0)  -->
<svg version="1.1" id="Calque_1" xmlns="http://www.w3.org/2000/svg" xmlns:xlink="http://www.w3.org/1999/xlink" x="0px" y="0px"
	 viewBox="0 0 426.9 330.2" style="enable-background:new 0 0 426.9 330.2;" xml:space="preserve">
<g id="Calque_2_1_">
	<g id="Calque_1-2">
		<g>
			<g>
				<path d="M2.5,134c0.8-17.5,5.9-33.6,12.6-49.9c4.7-11.2,10.2-22,15.9-32.7c5-9.3,9.9-18.7,16.4-27c2.9-3.7,6-7.1,9.5-10.2
					C60.4,11,65.1,6.4,70.1,6C78.2,5.5,80.2,17.5,81,23.4c1.7,12.2,0.7,24.5-0.9,36.6c-4.3,33.6-13.3,66.6-22.7,99.1
					c-8.8,30.1-18.5,59.8-28.8,89.4c-4.6,13.2-9.3,26.3-13.9,39.4c-3.2,9.1-6.3,18.2-9.3,27.3c-0.8,2.3-1.6,4.7-2.3,7
					c-0.2,0.7-1.1,2.6-0.7,2.3c0.4,1,0.8,2.1,1.2,3.1c0.2,2.2-0.8,5.8-0.1,3.7c0.4-1.2,0.7-2.4,1.1-3.5c1.3-4.1,2.6-8.3,3.9-12.4
					c4.7-14.7,9.6-29.3,14.5-43.9c15.6-46.1,32-92,49.4-137.4c7.1-18.5,14-37.3,25.3-53.8c2.6-3.8,9.8-15.6,14.9-13.9
					c5.7,1.9,2.8,19.1,2.3,23.4c-3.7,32.3-14.4,63.9-25.5,94.2c-15.2,41.2-28.9,83.3-40.5,125.7c-0.7,2.4-1.6,5-2,7.5
					c-0.1,0.8,0-0.2,0-0.1c0-1.7,1.3,6,1.2,6c0.2,0.1-0.3,0.7,0-0.1c0.2-0.5,0.3-1.2,0.4-1.7c2.1-9,4.8-17.9,7.4-26.7
					c8.8-29.9,18.4-59.8,29.5-88.9c4.6-12.1,9.4-24.4,15.8-35.8c3.4-6,7.4-11.6,11.2-17.3c6.2-9.3,12.5-18.6,20-27
					c2.1-2.3,13-16.4,17.4-13c2.9,2.3-0.8,14-1.5,16.9c-3.8,16.3-8.8,32.4-13.9,48.4c-11.4,36.3-26.3,72-32.6,109.7
					c-2.2,13-3.4,26.1-3.9,39.2c0,1.1-0.4,4.9,0.7,5.5c1,0.6,1.2-2.7,1.2-3.1c1.1-27.8,6.2-55.1,15.2-81.4c6-17.6,11.9-35.3,17.6-53
					c5.7-17.8,11.3-35.6,15.9-53.7c1.5-5.9,2.9-11.9,3.7-17.9c0.5-4.2,2.7-18.2-3-19.9c-1.7-0.5-3.7,0.9-5,1.9
					c-5.1,3.6-9.4,8.5-13.5,13.2c-7.7,8.8-14.1,18.6-20.6,28.2c-7.5,11.2-13.8,22.5-19.1,35c-13.1,30.9-23.3,63-33,95.1
					c-3.5,11.5-6.9,23.1-10,34.7c-0.6,2.4-1.3,4.8-1.6,7.3c-0.1,1.2-0.5,8.7,1.5,6.3c1-1.2,1.2-4.6,1.6-6c1.7-6.4,3.6-12.8,5.5-19.2
					c7.7-25.7,15.8-51.3,24.4-76.7c12.1-35.8,26.3-70.9,33.8-108.1c2-9.6,3.5-19.3,4.1-29.1c0.5-7.9,1.3-17.4-1.8-24.9
					c-3.7-8.8-12,2.1-15.1,6.2c-4.6,6-8.5,12.5-12,19.2c-11.6,22.1-19.6,46.4-28.3,69.8c-9.5,25.4-18.6,50.9-27.5,76.5
					C22.3,262.2,12,292.1,2.8,322.2c-0.8,2.6-1.5,5-1.2,7.8c0,0.3,0.4,4,1.2,3.1c1.6-1.6,2.1-5.9,2.8-7.9c2.6-7.8,5.3-15.7,8-23.5
					c4.7-13.7,9.6-27.3,14.4-41c10.9-31.3,21.3-62.7,30.6-94.5c9.9-34.1,19.3-68.9,23.6-104.3c1.6-13.6,2.3-27.4,0.8-41
					C82.1,14.1,81.2,4.7,76-0.5c-6.6-6.7-15.8,2.4-20.7,6.9c-8.7,8-14.9,18.1-20.6,28.4c-6.6,12-13,24.1-18.5,36.6
					c-8.5,19.5-14.7,39-15.7,60.2c0,1.1-0.4,4.9,0.7,5.5C2.3,137.7,2.4,134.4,2.5,134L2.5,134z"/>
			</g>
		</g>
		<g>
			<g>
				<path d="M116.1,329.9c8.7,3.9,18.1,3.1,24.3-4.5c3.5-4.3,6.3-9.4,8.4-14.5c3-7,5-14.4,7.1-21.7c2.1-7.3,6.1-16,5.6-23.8
					c0-0.2-0.5-4.1-1.2-3.1c-1.3,1.8-1.6,4.7-2.2,6.8c-1.8,6.2-3.2,12.4-4.5,18.7c-2.5,12.3-5.8,26.6-3.8,39.2
					c0.3,1.6,0.6,4.1,2.3,4.9c3.6,1.7,9.2-4.9,11.1-6.9c5.2-5.5,9.9-11.6,14.2-17.8c24.7-36.3,44.6-77.2,57.3-119.2
					c4.4-14.6,7.9-29.5,10.2-44.6c0.6-3.7,4.3-26-4.5-22.1c-5.1,2.2-9.4,8.3-12.7,12.5c-4.1,5.3-7.7,10.9-11,16.8
					c-4.2,7.4-7.9,15.2-11,23.1c-9.6,24.5-18.1,49.3-23.3,75.1c-3.3,16.1-6.5,32.6-7.7,48.9c-0.6,7.9-1.8,19.2,2.7,26.3
					c8.3,12.9,31.9-18.9,36.2-24.1c13.8-16.9,27.4-34.8,39-53.4c1.8-2.8,2.3-5.5,1.8-8.9c-0.1-0.5-0.3-2.7-1.1-2.1
					c-3.6,2.5-4.4,6.8-6.6,10.2c0.4,1,0.8,2.1,1.2,3.1c0.5,5.2-0.1,3.8,0.3,1.3c0.1-0.8,0.3-1.6,0.4-2.4c0.3-2.1,0.4-4.2,0.3-6.3
					c-0.1-3.2-0.3-7.1-4-8c-7.5-1.8-16.3,4.4-20.8,9.8c-9.9,12-13.7,30.4-13.6,45.5c0,8.3,0.7,18.6,4.5,26.2
					c4.1,8.2,11.3,4,16.2-1.2c11-11.6,15.7-28.3,18.5-43.7c1.3-7.1,2.1-14.3,2.4-21.5c0.1-2.5,1.2-9.6-0.8-11.7
					c-0.2-0.2-0.4-0.2-0.5,0c-1.2,1.2-0.8,5.1-1,6.7c-0.5,6.5-1.3,12.9-2.2,19.4c-2.1,15.3-5.5,33.3,0.6,48.2
					c6.9,17.1,24-19.3,26.4-25.2c4-9.9,7.9-19.8,13.4-28.9c1.5-2.5,8.6-15.6,12.1-13.8c2.5,1.2-0.6,15.2-1,17.8
					c-0.8,6-1.9,11.9-3,17.8c-0.8,4.3-1.8,8.6-2.8,12.8c-0.4,1.5-0.8,3-1.1,4.5c-0.1,0.4-0.6,1.8-0.3,1.2c0.4,1.4,0.8,2.9,1.3,4.3
					c0,4.9-0.2,2.6,0.5,0.5c0.5-1.6,1-3.2,1.5-4.8c1.7-5.3,3.4-10.6,5.2-15.8c3.6-10.6,6.9-21.2,13.5-30.3c2.7-3.7,5.7-7.7,9.3-10.6
					c6.2-5,7.9,0.1,8,6.3c0.1,8.3-1.9,17.4-3.6,26.3c-1.2,6.2-3,14.3,0.1,20.2c3.1,6,9.5,6.7,14.8,3.5c7.3-4.4,12.7-12.4,17.6-19.2
					c7.1-9.8,14.8-19.8,20.2-30.6c2.1-4.2,3.8-8.6,4.2-13.3c0.3-3.1,0.7-8.3-1.7-10.7c-2.7-2.7-7.8-0.7-10.8,0.5
					c-5.1,2.2-9.5,5.7-12.5,10.4c-4.4,6.8-6.4,15.2-7.8,23.1c-1.5,8.4-2.2,17.2-0.9,25.8c1.1,7.6,4.5,15.8,13.4,16
					c8.5,0.2,16.1-5.4,20.4-12.3c7.4-12,9.2-27.6,8-41.4c-0.6-6.7-2-20-10-22.2c-10.5-3-13.9,10.6-10.5,17.9
					c4.6,9.7,18,13.8,27.8,12.6c9-1.1,17.4-5.2,24.9-10.2c1.7-1.1,0.3-9.2-0.5-8.7c-11.9,8-28.3,14.3-41.9,6.7
					c-2.1-1.2-4.1-2.6-5.9-4.2c-0.7-0.6-1.5-2-2.3-2.4c-2.4-1.3,2.2-0.8-1.1,0.8c1.6-0.8,2.7-2.6,4.7-3.2c2.1-0.7,4.3-0.7,6.2,0.4
					c6.6,3.7,7.3,15.4,7,21.9c-0.4,11-4.4,23.9-13.4,30.8c-5.7,4.4-15.9,7.2-21.4,1.1c-4.9-5.4-4.2-13.9-3.3-20.5
					c0.9-6.8,2.5-13.9,5.5-20c2.1-4.2,5.1-7.9,8.9-10.6c3.3-2.3,9-5.3,13.2-4.3c2.8,0.7,1.7,2.1,0.9,4.2c-0.9,2.3-2,4.5-3.2,6.6
					c-3,5.2-6.6,10.1-9.9,15.1c-5.1,7.5-10.2,15-16,22c-3.5,4.2-8.1,9.6-13.7,10.9c-2.4,0.5-4.5,0.1-6.5-1.2c-1.6-1-2.8-2.2-3.6-3.9
					c-0.5-1-0.1-0.2-0.1,0.2c-0.1-0.9,0.3-2,0.4-2.9c2.5-14.7,6.1-29.3,4.1-44.3c-0.3-2.4-0.8-6.4-3.1-7.9c-2.8-1.8-6.3,1.5-8.2,3.3
					c-6.9,6.5-12.3,15.1-15.9,23.8c-3.8,9-6.6,18.4-9.6,27.7c-1.7,5.3-4.5,11.3-4.5,17c0,0.1,0.6,5.3,1.3,4.3
					c1.8-2.6,2.1-7.2,2.7-10.2c1.7-7.7,3.2-15.4,4.5-23.1c1.5-9.1,3-18.4,3.1-27.7c0-2.7,0.4-12.7-4.6-10.5
					c-4.3,1.9-7.4,8.4-9.8,12.2c-4.9,7.9-8.7,16.3-12.2,24.9c-3.3,8.1-6.3,16.4-11.1,23.7c-3,4.6-12.2,17.9-16.2,7.5
					c-5.6-14.6,0.2-32.7,1.9-47.5c0.4-3.5,1.6-8,1-11.5c0-0.2,0.2-0.8,0.1-1c0.6,1-1.5,0.4-1.7,0.5c0.1,0,0-0.4,0,0.8
					c0,0.7,0,1.3,0,2c-0.4,11.6-2.4,23.3-6,34.3c-2.2,6.8-5,13.4-9.1,19.2c-2.9,4.2-9.3,12.8-15.2,11c-4.2-1.3-5.3-7.1-6-10.8
					c-1.2-5.9-1.6-11.9-0.9-18c0.9-6.7,2.9-13.6,5.6-19.8c3.2-7.2,8.1-14.2,15.4-17.7c3.3-1.5,7.3-2.6,11-2.1c2.9,0.4,1.7,1.8,1.3,4
					c-0.2,1.5-0.4,3.1-0.2,4.6c0,0.1,0.6,4.1,1.2,3.1c2.2-3.4,3.1-7.8,6.6-10.2c-0.4-0.7-0.7-1.4-1.1-2.1c0,0,0,0.1,0,0.1
					c0.1-2.1,0.2-4.1,0.4-6.2c-0.9,2.6-3.2,5.1-4.7,7.3c-3,4.4-6,8.7-9.1,13c-5.2,7.3-10.4,14.5-15.8,21.6
					c-6.4,8.5-13.1,16.9-20.3,24.8c-4.9,5.3-10.8,12.2-17.8,14.7c-16.8,6-5.5-39.9-4.7-45c4.1-25.9,11-50.8,20.1-75.3
					c6.2-16.7,12.6-32.9,22.5-47.8c2.2-3.3,15.7-23.4,20.3-19.2c1.3,1.2-0.2,6.5-0.4,7.9c-0.5,3.6-1.1,7.1-1.8,10.7
					c-1.3,6.6-2.8,13.1-4.4,19.5c-11.1,42.5-30.3,83.3-53.7,120.4c-2.5,3.9-5,7.8-7.7,11.6c-5.2,7.4-11.2,16.4-18.9,21.5
					c-1.8,1.2-4.2,2.5-5.4,0.2c-0.9-1.7,0.3-6.3,0.5-8c0.5-4.6,1.2-9.2,2-13.8c1.2-6.9,2.7-13.7,4.5-20.5c0.6-2.1,1.2-4.3,1.8-6.4
					c0.1-0.5,1-2.6,0.7-2.1c-0.4-1-0.8-2.1-1.2-3.1c0-0.2,0.9-5,0.1-3.5c-0.3,0.6-0.4,1.4-0.5,2c-0.4,1.7-0.9,3.3-1.4,5
					c-1.4,5.1-2.9,10.3-4.4,15.4c-1.7,5.8-3.5,11.7-6,17.3c-2.1,4.6-4.7,9.4-8,13.2c-6.1,7.2-15.2,7.3-23.4,3.7
					C115.8,320.8,114,328.9,116.1,329.9L116.1,329.9z"/>
			</g>
		</g>
		<g>
			<circle cx="169.2" cy="234.3" r="0.9"/>
			<g>
				<path d="M169.2,237.9c0.2,0,0.3,0,0.5,0.1c-0.1-0.1-0.2-0.1-0.3-0.2c0.1,0.1,0.2,0.2,0.3,0.3c-0.1-0.2-0.2-0.3-0.2-0.5
					c0.4,0.8,0.3,0-0.3-2.2c0-0.8,0-1.6,0-2.4c0.6-2.3,0.7-3,0.3-2.2c0.1-0.2,0.2-0.3,0.2-0.5c-0.1,0.1-0.2,0.2-0.3,0.3
					c0.1-0.1,0.2-0.1,0.3-0.2c-0.3,0.2-0.6,0.2-0.9,0c0.1,0.1,0.2,0.1,0.3,0.2c-0.1-0.1-0.2-0.2-0.3-0.3c0.1,0.2,0.2,0.3,0.2,0.5
					c-0.4-0.8-0.3,0,0.3,2.2c0,0.8,0,1.6,0,2.4c-0.6,2.3-0.7,3-0.3,2.2c-0.1,0.2-0.2,0.3-0.2,0.5c0.1-0.1,0.2-0.2,0.3-0.3
					c-0.1,0.1-0.2,0.1-0.3,0.2C168.9,237.9,169,237.9,169.2,237.9c0.4,0,0.7-1.1,0.7-1.3c0.2-1,0.3-2.2,0.3-3.2c0-1.1,0-2.2-0.3-3.2
					c-0.1-0.3-0.2-1.3-0.7-1.3c-0.4,0-0.8,0.3-1,0.6c-0.3,0.4-0.5,1-0.6,1.5c-0.2,1.1-0.3,2.3-0.3,3.4c0,1.1,0.1,2.3,0.3,3.4
					c0.1,0.5,0.3,1,0.6,1.5c0.2,0.3,0.6,0.6,1,0.6c0.4,0,0.8-0.2,1-0.5c0.3-0.4,0.5-1,0.6-1.5c0.2-0.9,0.3-1.9,0.3-2.8
					c0-1.3,0-2.7-0.3-4c-0.1-0.5-0.3-1-0.5-1.4c-0.2-0.3-0.6-0.6-1-0.6c-0.4,0-0.7,1.2-0.7,1.3c-0.2,1-0.3,2.2-0.3,3.2
					c0,1.1,0,2.2,0.3,3.2C168.6,236.9,168.7,237.9,169.2,237.9z"/>
			</g>
		</g>
		<g>
			<circle cx="420.8" cy="284.8" r="1.1"/>
			<g>
				<path d="M420.8,288.2c0.2,0,0.4,0.1,0.6,0.2c-0.1-0.1-0.2-0.1-0.3-0.2c0.2,0.1,0.3,0.2,0.4,0.4c-0.1-0.2-0.2-0.3-0.2-0.5
					c0.4,0.8,0.3,0.1-0.3-2.1c0-0.8,0-1.6,0-2.4c0.6-2.2,0.7-2.9,0.3-2.1c0.1-0.2,0.2-0.3,0.2-0.5c-0.1,0.2-0.2,0.3-0.4,0.4
					c0.1-0.1,0.2-0.1,0.3-0.2c-0.4,0.2-0.7,0.2-1.1,0c0.1,0.1,0.2,0.1,0.3,0.2c-0.2-0.1-0.3-0.2-0.4-0.4c0.1,0.2,0.2,0.3,0.2,0.5
					c-0.4-0.8-0.3-0.1,0.3,2.1c0,0.8,0,1.6,0,2.4c-0.6,2.2-0.7,2.9-0.3,2.1c-0.1,0.2-0.2,0.3-0.2,0.5c0.1-0.2,0.2-0.3,0.4-0.4
					c-0.1,0.1-0.2,0.1-0.3,0.2C420.4,288.3,420.6,288.2,420.8,288.2c0.4,0,0.7-1.1,0.7-1.3c0.2-1,0.3-2.2,0.3-3.2
					c0-1.1,0-2.2-0.3-3.2c-0.1-0.3-0.2-1.3-0.7-1.3c-0.5,0-0.9,0.3-1.2,0.7c-0.3,0.4-0.5,1-0.6,1.5c-0.2,1.1-0.3,2.3-0.3,3.4
					c0,1.1,0.1,2.3,0.3,3.4c0.1,0.5,0.3,1.1,0.6,1.5c0.3,0.4,0.7,0.7,1.2,0.7c0.4,0,0.9-0.3,1.2-0.6c0.3-0.4,0.5-1,0.6-1.5
					c0.2-0.9,0.3-1.9,0.3-2.9c0-1.3,0-2.7-0.3-4c-0.1-0.5-0.3-1-0.6-1.5c-0.3-0.4-0.7-0.7-1.2-0.7c-0.4,0-0.7,1.2-0.7,1.3
					c-0.2,1-0.3,2.2-0.3,3.2c0,1.1,0,2.2,0.3,3.2C420.2,287.2,420.3,288.2,420.8,288.2z"/>
			</g>
		</g>
	</g>
</g>
</svg>
