<svg xmlns="http://www.w3.org/2000/svg" viewBox="0 0 244.66 276.59"><defs><style>.cls-1{fill:#fff;}.cls-2{fill:#fc0000;}</style></defs><g id="Calque_2" data-name="Calque 2"><g id="Calque_2-2" data-name="Calque 2"><polygon class="cls-1" points="84.8 276.6 85 276.06 84.91 274.56 84.8 276.6"/><path class="cls-1" d="M86,269c-.1.27-.17.12-.27.39l0,5.71C86.65,272.71,85.44,270.59,86,269Z" transform="translate(-0.45 -2.01)"/><path class="cls-1" d="M86.36,267.39a7.74,7.74,0,0,0,.21-3.61C86.77,264.58,85.85,267.78,86.36,267.39Z" transform="translate(-0.45 -2.01)"/><path class="cls-1" d="M84.74,152.91l.17-.66A2.69,2.69,0,0,0,84.74,152.91Z" transform="translate(-0.45 -2.01)"/><path class="cls-1" d="M72,201.44l.18.6c2-9.17,5.42-19.15,8-28.72l-.07.68c3.59-12,7-23.61,10.62-35.07,1.87-5.71,3.73-11.44,6.16-17A25.45,25.45,0,0,1,99,117.85a5.54,5.54,0,0,1,.77-.9,1,1,0,0,1,1.82.37,5,5,0,0,1,.38,1.11,15.44,15.44,0,0,1,.37,2.38c.08.77.13,1.55.16,2.32.06,1.55.06,3.1,0,4.66,0-.39-.12-.52-.15-.92a25.71,25.71,0,0,1,.18,3.89c-.09.35-.13-.38-.15-.82-.71,5.23-.68,15.45-1.43,18.69-.08,1.48.09,2.15.34,1.35-1.75,19.43-4.34,40.13-6.59,59.87-.2.94-.37,1.09-.53.81-.35,4.23-.8,8.5-1.31,12.8q-.39,3.22-.8,6.46c-.32,2.16-.64,4.31-1,6.48C89.85,245,88.38,253.71,87,262.29c.14.69.52-1.71.5,0,1.14-5.48,1-10.21,2.19-15.15l.12.68c.71-3.63-.45-.83.42-4.56.42-1.47.23.41.36-.28.58-3.88,1.17-7.83,1.76-11.74s1-7.76,1.22-11.45c.74-1.74,1.17-8.34,2-11.14.08-2,.4-4,.18-4.85,2-13.57,3.67-27.33,5.13-41.2.73-6.94,1.4-13.91,1.93-20.91.26-3.5.49-7,.64-10.53a88.72,88.72,0,0,0,0-10.69c-.07-.33-.16-1.08-.31-1.66a8.39,8.39,0,0,0-.54-1.67,3.33,3.33,0,0,0-.89-1.17,2.47,2.47,0,0,0-.69-.34,1.9,1.9,0,0,0-.76.1,5.34,5.34,0,0,0-2.31,2.33c-.16.26-.32.53-.47.81l-.33.62-.6,1.22C95,124,93.63,127.46,92.27,131,89.58,138,87,145.45,84.82,153c-.06.09-.09.07-.08,0-1.29,4.93-3.32,12.06-5.14,17.85l-1.06,5C73,193.22,68,211,63.08,228.84c-2.48,8.92-4.94,17.87-7.49,26.79-1.29,4.45-2.58,8.91-4,13.3-.35,1.09-.72,2.19-1.13,3.22-.1.26-.2.51-.31.73s-.11.21-.13.25h0l.25.2a1.34,1.34,0,0,1,.4.38c0,.09.06.05.07.11s0,0,0,0,.23-.16.37-.15a2.28,2.28,0,0,0,.34-.07l.2,0h0v-.17l0-.36.1-.82c.33-2.22.81-4.5,1.28-6.76,4.45-20.58,8.37-40,12-59.28s6.79-38.53,9.56-58.88c.08.07.19-.25.05.8,1.77-11.71,3.84-22.31,5.4-33.35l.08.05c.9-6.87,1.91-13.86,2.94-20.9s2.14-14.12,3.21-21.18l.38-2.65.39-3a30,30,0,0,0,.27-3.38A8.69,8.69,0,0,0,87,61.19a1.44,1.44,0,0,0-.27-.52.58.58,0,0,0-.62-.2,2.4,2.4,0,0,0-1,.63,9.71,9.71,0,0,0-1.7,2.15c-.57.91-1.11,2-1.62,3l-.63,1.33-.55,1.2C77.81,75.18,75.42,81.64,73.26,88,61.8,118.36,50.8,153.43,41.49,186.52l-.16-.13C37.65,199.65,34,212.68,30.42,225.7s-7,26.11-10.21,39.44l-1.39,5.12-.7,2.57-.37,1.27a9.9,9.9,0,0,1-.39,1.14s0,0,.08,0l.14.08c.09,0,.2.18.24.19a.05.05,0,0,1,0,.06s0,0,0,0a.71.71,0,0,1,.23-.05c.08,0,.32,0,.35,0h0v-.05l0-.29.11-.63.25-1.31.56-2.62q.57-2.62,1.16-5.26c1.54-7,3.1-14.14,4.66-21.24,3.11-14.2,6.21-28.44,9.68-42.25,4.86-17,7.93-40,12.27-55.95,4.22-16.47,7.65-32.87,10.5-49.37s5.14-33.11,6.66-50a205.9,205.9,0,0,0,1.84-23.37,79.09,79.09,0,0,0-.58-11.63,25.51,25.51,0,0,0-1.33-5.58A9.4,9.4,0,0,0,63,3.48,3.57,3.57,0,0,0,59.58,2a6.06,6.06,0,0,0-1.27.41A10.75,10.75,0,0,0,56,3.89,36.49,36.49,0,0,0,51.79,7.8c-2.62,2.8-5.06,5.79-7.5,8.75s-4.8,6-7.18,9c-1.22,1.47-2.28,3-3.41,4.58s-2.28,3.05-3.34,4.61c-1.72,3.17-3.74,6.25-5.53,9.55-.91,1.64-1.92,3.25-2.82,4.94l-2.73,5.1A139.08,139.08,0,0,0,10,76.16l.4-.47C7.94,81,7.67,88.22,5.89,91.46l.09-.6a13.88,13.88,0,0,0-.76,4.86c0,1.65,0,3.14-.52,4l.16.53c-.6,3.62-.38.37-1,3.15-.15,1,.41.48-.12,2.65-.6.14-.84,2.39-1.12,4.6s-.48,4.39-1.1,4.45c.24-2-.85,3.1-.56-1.44-.32,1.26-.85,7.46-.28,6.94.5.58.75,3,1.52-.68l-.33-.78c.52-1.22.3-.94.64-1.36.58-4.85,1.23-5.42,2-8.84,0,0,0,.07,0,0-.17-2.44.73-5.64,1.1-7.49l.36-.7c.68-1,.2-5.61.69-4a170.58,170.58,0,0,1,9.1-30.91c.21-1.59,3.33-7.78,1.82-5.8,1.66-2.31,5.39-9.62,6.85-12.29a1.14,1.14,0,0,1-.25.68,22.45,22.45,0,0,0,3.15-5.58,16.64,16.64,0,0,1,3.36-5.13c-.27-1.2,5.69-8.27,6.88-11.27.55-.45.81-.54.76-.26,1.53-2,3.08-4,4.7-6s3.31-4,5-5.91,3.29-3.77,4.91-5.44A31.78,31.78,0,0,1,57.6,4.65c.3-.23.62-.46.94-.67a4.59,4.59,0,0,1,.94-.43A1.8,1.8,0,0,1,61,3.61,3.73,3.73,0,0,1,62.4,5.23a12.46,12.46,0,0,1,1,2.62c1,3.83,1.09,7.94,1.62,11,0,5.12-.86,13.39-1.2,20.59l-.05-.7c-.67,8.09-2,18.18-2.23,23.8-1.2,2.26-1.55,5.77-2.37,9.21-.44,5.43-2.39,16.25-3.54,24.49-.61,1.19-1.08,6.78-1.73,7.09-3.18,23.11-9.53,51.25-15.79,75.35l0-.37c-.4,3.23-.53,7-.85,10.31-.12.3-.21.24,0-.43-.9,4.46-2.4,8.48-3.31,12.93-.09-.06-.09-.06,0-.8-.7,4.22-2.43,8.48-3.13,13.48l-.21.24L30,217.2c-.17-.12-.42-.31,0-2Q26.67,229.49,23.35,244c-2.19,9.66-4.47,19.31-6.49,29.16-.12.63-.24,1.22-.33,1.95,0,.1,0,.19,0,.34v.24s0,.05,0,.18a1.38,1.38,0,0,0,.08.29,1.41,1.41,0,0,0,1.21.83,1.44,1.44,0,0,0,1.05-.46l.11-.13a1.41,1.41,0,0,0,.18-.33l.07-.17.1-.27c.11-.34.2-.65.29-1,.35-1.23.66-2.44,1-3.66l1.8-7.3q1.78-7.29,3.55-14.6c2.38-9.74,4.82-19.47,7.42-29.14l-.2,1.47,1.69-7.59c.08.06,0,.43,0,.8,2.88-9.47,5.12-19.5,7.87-28.74.08.06-.15,1.52.33.25,1.48-7,3.86-10.81,3.84-14.55.14-.3.44-.45.32.27,5.33-19.13,11.5-38.58,18.13-57.45,2.23-8,5.14-16.37,8.26-24.71q2.34-6.25,4.81-12.46l2.48-6.14c.43-1,.85-2,1.27-3l.61-1.4.61-1.34,0,.34a15.3,15.3,0,0,1,1.88-3.16,1.85,1.85,0,0,1,.37-.31.36.36,0,0,1,.43,0,1.23,1.23,0,0,1,.28.79,11.88,11.88,0,0,1,0,1.79c-.08,1.23-.21,2.46-.38,3.81l-.56,4.26c-.81,5.69-1.71,11.42-2.64,17.17C81,101.51,79,113.1,77.18,124.58c-1.62,9.51-2.44,16-4,25.55l-.28.2c-1.79,16.25-6.61,33.67-8.65,50.6l-.11-1.21c0,2.69-2,10.1-1,9.26l-.82,2.91c-1,11.59-4.39,20.6-6.41,34.65l0-.95a106.91,106.91,0,0,1-2.08,10.75c.06-.43,0-.25.09-1.13q-1.22,4.28-2.18,8.82c-.33,1.51-.63,3-.9,4.58a37.77,37.77,0,0,0-.63,4.75,2.18,2.18,0,0,0,0,.35.64.64,0,0,0,.05.24.53.53,0,0,0,.09.2.5.5,0,0,0,.41.19.44.44,0,0,0,.23-.06.26.26,0,0,0,.09-.06l.13-.12.11-.17a2.19,2.19,0,0,0,.16-.3,10.77,10.77,0,0,0,.45-1.14c.27-.75.51-1.51.74-2.27.46-1.53.9-3.06,1.32-4.58.86-3.05,1.71-6.1,2.55-9.09l0,1.46c1.24-5.91,4.62-16.43,6.54-24.12l0,.51.83-3.92h.38C67.07,220.56,69.36,211.13,72,201.44Z" transform="translate(-0.45 -2.01)"/><path class="cls-1" d="M102.46,129.94a.45.45,0,0,1,0-.11C102.45,129.52,102.45,129.67,102.46,129.94Z" transform="translate(-0.45 -2.01)"/><path class="cls-1" d="M4.76,107.7l-.26,1.23A6.71,6.71,0,0,0,4.76,107.7Z" transform="translate(-0.45 -2.01)"/><polygon class="cls-1" points="244.66 237.45 244.23 237.53 243.38 238.28 244.66 237.45"/><path class="cls-1" d="M238.84,243.12c.22,0,.16.1.38.06,1.18-.85,2.35-1.7,3.5-2.57C240.79,241,240.13,242.93,238.84,243.12Z" transform="translate(-0.45 -2.01)"/><path class="cls-1" d="M237.66,243.54a4.72,4.72,0,0,0-2.37,1.38C235.71,244.41,238.17,243.82,237.66,243.54Z" transform="translate(-0.45 -2.01)"/><path class="cls-1" d="M219.57,259c.07-.13.15-.3.21-.44A1.72,1.72,0,0,0,219.57,259Z" transform="translate(-0.45 -2.01)"/><path class="cls-1" d="M194.09,262.93l-.36-.38a29.8,29.8,0,0,0,1.18,5.46,7.68,7.68,0,0,0,3.49,4.6,8.72,8.72,0,0,0,5.86.51,17.82,17.82,0,0,0,5.36-2.2l-.4.34a29.75,29.75,0,0,0,10.53-9.47,27.32,27.32,0,0,0,3.08-6.28,19.43,19.43,0,0,0,1.25-6.83,6.57,6.57,0,0,0-1-3.36,4.47,4.47,0,0,0-1.25-1.24,5.2,5.2,0,0,0-1.63-.65,11.71,11.71,0,0,0-6.75,1,15.42,15.42,0,0,0-8.78,10.14c.06-.28,0-.41.06-.71a10.53,10.53,0,0,0-.22,1.42c-.06.49-.13,1-.2,1.47-.12.25-.11-.3-.1-.63a11.58,11.58,0,0,0,.35,7.52,20.91,20.91,0,0,0,3.39,5.49c.84.75,1.37.87,1,.34a13.35,13.35,0,0,0,9.92,3.39,13.92,13.92,0,0,0,9.32-5.13,15.26,15.26,0,0,0,3.66-10,14.11,14.11,0,0,0-1.16-5.2,13.88,13.88,0,0,0-2.86-4.39c-.39-.55-.39-.73-.11-.74a10.74,10.74,0,0,0-8.19-2.71c-1.43.1-2.91.58-3.43,1.33a2,2,0,0,0-.34,1.37,1.46,1.46,0,0,0,.55,1.12,3.45,3.45,0,0,0,1.62.55,12,12,0,0,0,2.25,0,25.3,25.3,0,0,0,4.63-.81,82.82,82.82,0,0,0,9.29-3.08c.38-.41-1.33.26-.22-.44-2,.64-3.74,1.46-5.46,2.17a18.61,18.61,0,0,1-5.27,1.53l.41-.32c-1.32.24-1.41.35-1.53.51a.6.6,0,0,1-.35.2,3.69,3.69,0,0,1-1.25.1c-1-.1.23-.31-.24-.29a6.88,6.88,0,0,1-3.45-.32,1,1,0,0,1-.54-.62,1.91,1.91,0,0,1,0-1.11,1.39,1.39,0,0,1,.63-.79,4.65,4.65,0,0,1,1.47-.6,12.33,12.33,0,0,1,3.71-.27,27.2,27.2,0,0,1,3.1,1.42,7.48,7.48,0,0,1,2.79,2.83c1,.95,1.62,2.2,2.11,2.56a14.52,14.52,0,0,1,1.32,6.91,14.84,14.84,0,0,1-2.25,6.71,15.49,15.49,0,0,1-5,5.06,12.3,12.3,0,0,1-6.77,1.77,13.31,13.31,0,0,1-11.27-7.87,14.44,14.44,0,0,1,1.76-14,12.74,12.74,0,0,1,2.21-2.8,12.37,12.37,0,0,1,3.12-2.07,13.75,13.75,0,0,1,3.72-1.16,6.94,6.94,0,0,1,3.7.3,3.43,3.43,0,0,1,2,2.57,10.41,10.41,0,0,1-.09,3.92,31.23,31.23,0,0,1-2.88,8c-.07.05-.09,0-.08-.06a23,23,0,0,1-3.68,5.36,25.75,25.75,0,0,1-5.45,4.54,24.23,24.23,0,0,1-3.13,2.17,14.55,14.55,0,0,1-4.83,1.21,6.26,6.26,0,0,1-4.36-1.19,7.84,7.84,0,0,1-2.24-4.07,23.53,23.53,0,0,1-.66-5c-.06-1.71,0-3.43.07-5.16l.18-2.61.3-3.5a32.42,32.42,0,0,0,.18-3.65,10,10,0,0,0-.35-2.37,3.25,3.25,0,0,0-.38-.9.9.9,0,0,0-.48-.36.93.93,0,0,0-.6.12,4.74,4.74,0,0,0-1.51,1.46,27.07,27.07,0,0,0-2.89,6.24l-1,2.8-.84,2.52c-1.1,3.37-2.14,6.75-3.2,10.11-.53,1.67-1.06,3.39-1.66,4.95L183,272l-.05.1,0,0s-.08-.07.22.14.34.21.45.35.09.09.1.11,0,.05,0,0,0,0,0,0,.26-.12.4-.11l.32,0,.21,0h0s0-.1,0-.19c0-.37.1-.8.17-1.22.14-.85.3-1.72.47-2.58.69-3.45,1.44-6.9,2.16-10.36s1.39-6.8,2-10.17l.22-1.26.25-1.59c.2-1.33.37-2.68.45-3.91a9,9,0,0,0-.19-2.92,3.75,3.75,0,0,0-.35-.93,1.9,1.9,0,0,0-.71-.76,1.79,1.79,0,0,0-1,.14,3.84,3.84,0,0,0-.71.43A6.89,6.89,0,0,0,185.9,239a28.22,28.22,0,0,0-1.67,3l-.81,1.66-.56,1.18c-1.27,2.7-2.47,5.4-3.68,8.08-2.42,5.33-4.77,10.68-7.57,15.64a27.58,27.58,0,0,1-2.27,3.46,7.32,7.32,0,0,1-.62.7,1.65,1.65,0,0,1-.24.22.42.42,0,0,1-.58,0,.81.81,0,0,1-.17-.28.77.77,0,0,1-.07-.19c0-.14-.09-.3-.13-.45a19.2,19.2,0,0,1-.4-2c-.23-1.44-.41-2.83-.5-4.25a44.56,44.56,0,0,1,2.63-17.23c.07.07.21-.14,0,.6.2-.51.4-1,.61-1.5.11-.24.22-.48.34-.7l.17-.3,0-.06s.08.12-.29-.23c-.13-.11-.27-.3-.34-.29a.11.11,0,0,1,0-.12c0-.06,0,0-.05,0a.4.4,0,0,0-.17,0l-.22,0h-.48a6,6,0,0,1-.08.66l-.13.78c-.1.53-.21,1-.33,1.57-.47,2.09-1,4.14-1.65,6.14a78.13,78.13,0,0,1-4.52,11.6l-.07-.07c-1.13,2.26-2.5,4.57-4.47,5.94a4.61,4.61,0,0,1-1.56.69,2.51,2.51,0,0,1-.82.06,3.42,3.42,0,0,1-.83-.1,7,7,0,0,1-3.07-1.91,21.37,21.37,0,0,1-4.29-6.55,18.26,18.26,0,0,1-1.51-7.64,24,24,0,0,1,5.78-14.27A26.28,26.28,0,0,1,157,237.8a24.89,24.89,0,0,1,6.84-3.19,6.68,6.68,0,0,1,4.34.28c1.27.72,1.58,2.37,1.45,3.87-.27,3.1-1.5,6.12-2.65,9.14-2.3,6-5.14,12.12-9.52,17.11a27.14,27.14,0,0,1-7.7,6.19c-.72.39-1.5.68-2.25,1s-1.58.51-2.36.78a33.79,33.79,0,0,1-4.87,1.05,19.94,19.94,0,0,1-4.94.14,11.18,11.18,0,0,1-4.65-1.47,9.74,9.74,0,0,1-3.36-3.48,16.35,16.35,0,0,1-1.64-4.59l.19,0a31.76,31.76,0,0,1-.55-7.73,61.85,61.85,0,0,1,.82-7.7,139.74,139.74,0,0,1,3.43-15c2.78-9.9,6.1-19.61,9.25-29.57,3.6-10.11,6.95-20.64,10.3-31.19s6.78-21.1,11-31.11c1.24-2.62,2.44-5.46,3.73-8.37.65-1.45,1.32-2.92,2.07-4.36a21.47,21.47,0,0,1,1.18-2,6.39,6.39,0,0,1,.75-.9,1.27,1.27,0,0,1,1.06-.47c.51.17.72.71.88,1.19a9.81,9.81,0,0,1,.33,1.56,29.55,29.55,0,0,1,.21,3.25c0,2.17-.08,4.31-.26,6.4a73.57,73.57,0,0,1-1.91,11.59c-3,12.61-6.21,24.89-9.67,37.13s-7.26,24.4-11.77,36.54c-2.4,5.48-4.81,10.93-7.34,16.32s-5.09,10.75-7.91,16c-1.41,2.61-2.89,5.17-4.48,7.67a52.62,52.62,0,0,1-5.33,7.12,16.68,16.68,0,0,1-3.41,2.95,6.77,6.77,0,0,1-2.17.92,3.72,3.72,0,0,1-2.43-.3,5.31,5.31,0,0,1-1-.69,6.94,6.94,0,0,1-.75-.89,10,10,0,0,1-1.09-2,22,22,0,0,1-1.23-4.21,32.29,32.29,0,0,1-1.28-8.35,32.65,32.65,0,0,1,1-8.7,45.81,45.81,0,0,1,3-8.4c.31-.69.65-1.32,1-2.08a.8.8,0,0,0,.07-.22s0-.35-.17-.44a.45.45,0,0,0-.5,0c-.1,0-.1.06-.1.06l0,0,0,.06a1.45,1.45,0,0,0-.21.28l-.32.5-.57,1c-.73,1.34-1.42,2.69-2.09,4.07l.41-.29c-2.61,3.59-3.45,9.17-5.6,11.15l.16-.43c-1.5,1.84-1.23,5.38-2.41,6.37l.07.45c-1.16,2.56-.42.17-1.45,2.07-.33.75.29.49-.58,1.95-1.14-.14-2.79,6.28-4,5.93.67-1.39-1.47,1.95-.2-1.26-.54.83-2.53,5.09-1.88,4.93.32.6-.05,2.46,1.57.08l-.11-.69c.78-.7.5-.58.92-.76,1.67-3.33,2.41-3.53,3.79-5.83,0,0-.05,0-.05,0a21.08,21.08,0,0,1,2.42-5.27l.46-.43c.8-.59,1-4.21,1.26-2.84,1.57-3.45,3.31-7.13,5.15-10.87.92-1.88,1.86-3.77,2.82-5.65.48-.94,1-1.89,1.47-2.77.11-.2.27-.46.31-.52l-.29-.24-.21-.15a1.83,1.83,0,0,1-.35-.33.32.32,0,0,0-.12-.11s0-.11,0-.07-.09,0-.32,0a2.15,2.15,0,0,1-.54-.14,1.83,1.83,0,0,0-.33-.13l-.11,0h0v0l-.14.32-.64,1.47c-.11.61-.74,2.15-1.12,3.37s-.57,2.08,0,1.26a17.42,17.42,0,0,0-1.94,5.13,27.82,27.82,0,0,0-.76,5.64.8.8,0,0,1-.08-.59,10.64,10.64,0,0,0,0,5.16,15.69,15.69,0,0,1,.46,4.89c.43.27.72,2.25,1.43,4.46a13.64,13.64,0,0,0,1.51,3.27,5.11,5.11,0,0,0,2.44,2c.52.51.8.71.45.73a4,4,0,0,0,1.08.34,4.3,4.3,0,0,0,1.12.07,5,5,0,0,0,1.06-.15,5.45,5.45,0,0,0,.94-.31,10.83,10.83,0,0,0,3-1.84,31.38,31.38,0,0,0,4.35-4.54,80.89,80.89,0,0,0,6.26-9.18c2.3-5.15,6.74-11.79,8-16.5a101.46,101.46,0,0,0,6.81-14.39l-.11.54c2.44-5.76,5.25-13.05,6.2-17.26,1.45-1.43,2.21-4,3.37-6.48,1-4.07,3.78-12,5.23-18.23.67-.82,1.3-5.08,1.95-5.24,1.84-8.55,4-18,6-27.73,1-4.86,1.89-9.76,2.59-14.67.35-2.45.65-4.9.81-7.38,0-.62.07-1.24.08-1.87,0-.31,0-.63,0-.95v-.81l0-.41a9.25,9.25,0,0,0-.69-3,4,4,0,0,0-.73-1,4.72,4.72,0,0,0-1.06-.63,2.9,2.9,0,0,0-1.69.06,2.75,2.75,0,0,1,.36-.15,4.67,4.67,0,0,0-2.26,2,14.82,14.82,0,0,0-.85,1.56,2.69,2.69,0,0,0-.13.31l-.09.25-.17.5c-.45,1.34-.78,2.67-1.13,3.9-.15.21-.23.14,0-.34-1.37,3.21-3.11,6-4.28,9.28-.08-.06-.08-.06,0-.62-1,3.12-2.85,6.12-3.74,9.88l-.22.15-.63,2.37c-.16-.12-.4-.31.11-1.51-5.15,14-9.79,28.34-14.51,42.79-2.35,7.23-4.68,14.5-6.92,21.81s-4.38,14.66-6.19,22.11l.09-1.13q-.56,2.92-1,5.87c-.08-.05-.07-.33-.06-.62a64.25,64.25,0,0,0-1.82,11.39,41.18,41.18,0,0,0,.6,11.53c-.11,0-.56-1.12-.41,0a19.33,19.33,0,0,0,3.24,6.58,6.08,6.08,0,0,0,4.58,2.48c.24.14.35.44-.26.31a16.49,16.49,0,0,0,6.08.7,32.45,32.45,0,0,0,5.85-.95,26.42,26.42,0,0,0,10.66-5.17,37.51,37.51,0,0,0,7.75-8.89,66.65,66.65,0,0,0,5.24-10.4,92,92,0,0,0,2.75-9.51,13.3,13.3,0,0,0,.25-2.62,5.57,5.57,0,0,0-.67-2.73,3.92,3.92,0,0,0-2.36-1.7,7.79,7.79,0,0,0-2.75-.14,17.68,17.68,0,0,0-5,1.49,26.35,26.35,0,0,0-4.51,2.56,23.1,23.1,0,0,0-6.85,7.46l-.12-.16a25,25,0,0,0-3.74,12.42,18.59,18.59,0,0,0,1.09,6.51,26.14,26.14,0,0,0,3.05,5.92,17.75,17.75,0,0,0,2.18,2.57,7.83,7.83,0,0,0,2.88,1.83,4.7,4.7,0,0,0,3.44-.13,8.49,8.49,0,0,0,2.77-2,24,24,0,0,0,3.74-5.62,55.12,55.12,0,0,0,2.58-6.17,73.86,73.86,0,0,0,2.79-9.46,40.8,40.8,0,0,0,.84-4.67,1.19,1.19,0,0,0,0-.19.21.21,0,0,0,0-.1.22.22,0,0,0-.21-.14.31.31,0,0,0-.19.08l0,0a2,2,0,0,0-.19.29c-.11.19-.2.37-.3.56-.18.38-.35.77-.52,1.17-.33.79-.65,1.62-1,2.5l-.29.1c-1.55,6.05-2.72,12.58-1.95,19.24.09.82.18,1.65.34,2.48a8.27,8.27,0,0,0,.33,1.3,3.65,3.65,0,0,0,.7,1.32,1.69,1.69,0,0,0,1.28.64,2.57,2.57,0,0,0,1.4-.46,8.56,8.56,0,0,0,2-1.95,38.81,38.81,0,0,0,4.65-8.75l-.1.95c.46-2,3.52-7,2.4-6.7l1.18-2a59.81,59.81,0,0,1,3.82-9.5l1.16-2.29c.41-.8.83-1.58,1.23-2.33s.82-1.46,1.26-2.17a12.09,12.09,0,0,1,.71-1,4.06,4.06,0,0,1,.43-.5c.16-.13.36-.32.59-.24a.74.74,0,0,1,.32.53,4.58,4.58,0,0,1,.1.63c0,.43,0,.85,0,1.29,0,.86-.06,1.76-.11,2.77a4.68,4.68,0,0,0-.15-.48c-.06,1.22-.23,2.81-.43,4.26a34,34,0,0,1-.75,3.82,6.4,6.4,0,0,1,0-.87c-1.2,4.34-2.13,9-3,13.73-.41,2.37-.82,4.75-1.14,7.16,0,.3-.08.6-.1.91a3.72,3.72,0,0,0,0,.48.47.47,0,0,0,0,.15s0,0,0,.12a.22.22,0,0,0,.25.08c.22-.13.18-.19.24-.27a14.76,14.76,0,0,0,.63-1.71l1.09-3.42,0,1.15c.48-2.26,1.43-5.36,2.49-8.62l3.1-9.26v.51c.22-.85.5-1.81.85-2.87l.07.86a15.26,15.26,0,0,1,1-1.94,3.46,3.46,0,0,1,.34-.44c.12-.13.31-.26.48-.18.29.23.27.62.32.94.07,1.35-.06,2.72-.13,4.2s-.2,3.47-.25,5.31S193.94,261,194.09,262.93Z" transform="translate(-0.45 -2.01)"/><path class="cls-1" d="M204.23,256.15l0-.07C204.29,255.84,204.25,256,204.23,256.15Z" transform="translate(-0.45 -2.01)"/><path class="cls-1" d="M100.52,267.39l-.48.83C100.14,268.19,100.37,267.66,100.52,267.39Z" transform="translate(-0.45 -2.01)"/><path class="cls-2" d="M115.53,229a.67.67,0,0,0,.34.81c.38.06.94-.87.74-1.15s-.55-.15-.82,0A.65.65,0,0,0,115.53,229Z" transform="translate(-0.45 -2.01)"/><polygon class="cls-1" points="116.97 227.69 115.58 227.19 115.58 227.19 115.58 227.19 115.58 227.19 115.58 227.19 115.58 227.19 115.58 227.19 115.58 227.19 116.97 227.69"/><polygon class="cls-1" points="115.58 227.19 115.58 227.19 115.58 227.19 115.58 227.19"/><path class="cls-1" d="M116,229.2Z" transform="translate(-0.45 -2.01)"/><path class="cls-1" d="M116.32,229.56Z" transform="translate(-0.45 -2.01)"/><path class="cls-1" d="M116.12,228.35l-.05-.33c.06.59-.09,0-.08.27l0-.11c-.16-.09-.08.48,0,.72l-.08-.15.13.27-.09-.17c-.29-.47.15.32-.08,0l.25.39s0,.07,0,.1l0,0-.08-.09h0l-.07-.05h0l0,0,0,0h0l0,.06.15.19.2.3c0,.08,0,0,0,0l-.33-.49h0v0l0,.08v0l0,.06,0,.07h0c0,.07,0-.17,0,0l-.1-.39a3.14,3.14,0,0,1,.1.38v-.09a2.12,2.12,0,0,1,0-.34.6.6,0,0,1,.13-.3.5.5,0,0,1-.25.05h0l-.3,0h0l-.08,0,.1,0s0,0,0,0,0,0,.34.22c-.11,0-.08.15.06.37l-.15-.11c.25.32-.55-.28-.35-.06-.16-.14,0,.06.14.29s.14.48,0,.22c-.15-.44,0-.19-.08.07s-.26.48-.1,0a1.66,1.66,0,0,1,.15-.35l0-.06.09-.1,0,0-.08.06-.21.14a3.48,3.48,0,0,1-.58.25c.2-.18,0-.14-.16-.18s-.25-.14.27-.27c-.34,0-.14-.06.13-.09s.6,0,.5,0l-.23,0c.7.09-1-.16.06,0h0c.53.11-1.23-.26-.61-.14L115,229c-.07,0,.29.06.39.07s-.46-.12-.31-.09a6.07,6.07,0,0,1,.94.25h0l.23.08h0l-.1,0-.18-.07-.35-.12c-.23-.09-.44-.17-.64-.23l.37.14-.47-.15c-.06,0-.62-.15-.86-.17h0c.45.15.17.11.1.12l-.22,0c-.46-.08.88.25.1.07a.41.41,0,0,1,.15.38c.31,0,0,.08.56.06-.67,0-.83.12-.8.15h-.11c-.86.14.8,0-.24.16.74-.08-.22.16.65.05l-.44.08c0,.1-.23.29-.24.39.65-.13-.21.3.66,0-.17.11-.47.36-.1.27l-.11,0c.09.05.19.13.69-.13a2.39,2.39,0,0,0-.74.62c.37-.17.36,0,.7-.16-.28.29.18-.06-.23.35.53-.26.72-.34.88-.19a10,10,0,0,0,.76,1v0a4.86,4.86,0,0,0,0-1.44s0,.14,0,.14.19.43.23.31a1.21,1.21,0,0,1,0,.18c0-.26.31.39.19-.05l.06.14,0-.21c.08.17.2.43.15.39.31,0,.38-.35.36-.61s-.1-.48,0-.51l.13.12-.22-.24.14.12c.29.16-.1-.22,0-.2s.22.17.31.22c-.41-.33.59.34-.29-.29l.31.21c-.23-.29-.17-.35,0-.36-.84-.52,0-.22-.69-.59l.19.07c-.62-.3.1-.15,0-.32.08,0-.15-.1-.16-.13h.25c-.47,0-.26,0-.09-.17s.25-.37-.2-.12l.27-.19c-.41.3,0-.22-.56.41a1.63,1.63,0,0,0,.17-.2,1.83,1.83,0,0,0-.25.29l.06-.11c.09-.16.13-.4,0-.05l.07-.2c-.07.15-.11.27-.07.09l0-.15c.12-.82-.15.06-.15,0l0-.39c-.06.45-.09,0-.13.24v.07l0-.37C116.16,228,116.15,228.3,116.12,228.35Z" transform="translate(-0.45 -2.01)"/><path class="cls-1" d="M115.94,228.85h0Z" transform="translate(-0.45 -2.01)"/><path class="cls-1" d="M113.88,228.61H114C113.89,228.6,113.9,228.61,113.88,228.61Z" transform="translate(-0.45 -2.01)"/></g></g></svg>