<svg xmlns="http://www.w3.org/2000/svg" viewBox="0 0 238.11 278.78"><defs><style>.cls-1{fill:#fff;}.cls-2{fill:#fc0000;}</style></defs><g id="Calque_2" data-name="Calque 2"><g id="Calque_2-2" data-name="Calque 2"><polygon class="cls-1" points="76.42 277.52 76.65 277 76.64 275.5 76.42 277.52"/><path class="cls-1" d="M78.19,270c-.11.26-.18.11-.29.38l-.28,5.7C78.63,273.72,77.52,271.55,78.19,270Z" transform="translate(-0.49 -2.01)"/><path class="cls-1" d="M78.61,268.4a7.61,7.61,0,0,0,.39-3.6C79.17,265.61,78.08,268.77,78.61,268.4Z" transform="translate(-0.49 -2.01)"/><path class="cls-1" d="M82.94,154c.07-.19.15-.45.21-.65A2.78,2.78,0,0,0,82.94,154Z" transform="translate(-0.49 -2.01)"/><path class="cls-1" d="M67.73,201.79l.15.61c2.44-9.05,6.42-18.84,9.44-28.26l-.11.67c4.21-11.82,8.17-23.21,12.43-34.47,2.17-5.61,4.33-11.23,7-16.66a25.82,25.82,0,0,1,2.38-4,5.09,5.09,0,0,1,.81-.86,1.28,1.28,0,0,1,1.06-.38,1.32,1.32,0,0,1,.74.84,5.42,5.42,0,0,1,.32,1.13,15.4,15.4,0,0,1,.25,2.4c0,.78,0,1.55,0,2.32,0,1.55-.09,3.11-.19,4.66,0-.39-.1-.53-.11-.93a25.46,25.46,0,0,1,0,3.9c-.11.34-.11-.39-.11-.83-1,5.19-1.47,15.4-2.39,18.59-.16,1.47,0,2.16.26,1.37-2.76,19.31-6.42,39.85-9.69,59.45-.25.92-.43,1.06-.57.77-.57,4.21-1.24,8.46-2,12.72l-1.14,6.41c-.43,2.14-.87,4.28-1.3,6.42-1.78,8.56-3.69,17.15-5.53,25.64.09.7.6-1.69.49,0,1.43-5.41,1.53-10.14,3-15l.08.68c.9-3.58-.4-.84.66-4.53.5-1.44.21.42.37-.26.78-3.84,1.58-7.76,2.37-11.63s1.38-7.71,1.81-11.38c.83-1.69,1.6-8.26,2.6-11,.19-2,.61-4,.44-4.83q4-20.18,7.26-40.88c1.09-6.89,2.11-13.81,3-20.78.44-3.48.86-7,1.19-10.48a89.51,89.51,0,0,0,.52-10.67c0-.34-.1-1.1-.23-1.68a7.45,7.45,0,0,0-.45-1.69,3.16,3.16,0,0,0-.82-1.22,2.43,2.43,0,0,0-.67-.38,2.18,2.18,0,0,0-.77.06,5.43,5.43,0,0,0-2.43,2.21c-.17.26-.34.51-.51.78l-.35.6-.67,1.19c-1.7,3.2-3.23,6.57-4.78,10-3,6.91-6,14.18-8.57,21.56-.07.08-.1.05-.09,0-1.54,4.85-3.94,11.87-6.06,17.56l-1.32,5c-6.4,17.11-12.31,34.59-18.19,52.16-2.94,8.78-5.87,17.59-8.88,26.36-1.51,4.38-3,8.77-4.68,13.08-.41,1.07-.84,2.15-1.29,3.16l-.35.71-.15.24h0l.24.22c.19.17.29.22.38.4s.06.05.06.11,0,0,0,0,.24-.14.39-.13l.34-.05.2,0c.07,0,0,0,0,0v-.16l.05-.36.14-.81c.44-2.2,1-4.46,1.62-6.68,5.52-20.33,10.44-39.5,15-58.58S69.32,168,73.14,147.85c.08.08.2-.24,0,.81,2.38-11.61,5-22.08,7.12-33l.08.06c1.25-6.81,2.63-13.74,4-20.71s2.86-14,4.3-21l.52-2.63.54-2.95A31.86,31.86,0,0,0,90.19,65,8.57,8.57,0,0,0,90,62.51a1.45,1.45,0,0,0-.23-.53.58.58,0,0,0-.61-.23,2.5,2.5,0,0,0-1,.57,10.31,10.31,0,0,0-1.81,2.06c-.61.88-1.21,1.9-1.77,2.91l-.7,1.29-.61,1.17c-3.19,6.26-5.91,12.58-8.4,18.77C61.83,118.29,49,152.75,38,185.31l-.15-.14c-4.36,13-8.65,25.87-12.93,38.69s-8.34,25.71-12.26,38.85q-.81,2.52-1.64,5.05l-.84,2.52-.44,1.25a11.74,11.74,0,0,1-.44,1.13s0,0,.07,0a.42.42,0,0,1,.14.09c.09.05.19.19.23.19a.06.06,0,0,1,0,.06s0,0,0,0a.73.73,0,0,1,.23,0h.35v-.05l0-.29.14-.63.32-1.28.69-2.59c.48-1.73.95-3.46,1.43-5.2q2.87-10.43,5.77-21c3.84-14,7.68-28.08,11.85-41.69,5.74-16.69,10-39.51,15.17-55.24,5.07-16.23,9.35-32.43,13-48.76s6.86-32.8,9.25-49.61a205.18,205.18,0,0,0,3.06-23.25,79.35,79.35,0,0,0,0-11.64,25.86,25.86,0,0,0-1-5.65A9.44,9.44,0,0,0,69,3.63a3.59,3.59,0,0,0-2-1.5A3.81,3.81,0,0,0,65.66,2a7.44,7.44,0,0,0-1.29.34,11.33,11.33,0,0,0-2.43,1.33,36.23,36.23,0,0,0-4.37,3.68c-2.75,2.67-5.35,5.52-7.94,8.35s-5.1,5.72-7.63,8.58c-1.3,1.4-2.44,2.92-3.65,4.39s-2.43,2.93-3.57,4.44c-1.88,3.07-4.06,6-6,9.24-1,1.59-2.08,3.15-3.07,4.79l-3,5A140.31,140.31,0,0,0,12.28,73.46l.43-.45C10,78.16,9.34,85.39,7.39,88.53l.12-.6a14,14,0,0,0-1,4.82c-.11,1.64-.19,3.13-.73,4l.14.54c-.79,3.59-.41.35-1.14,3.09-.21,1,.38.5-.26,2.64-.6.12-1,2.35-1.36,4.54s-.7,4.36-1.33,4.39c.34-2-1,3-.48-1.48C1,111.67.1,117.83.69,117.35c.48.6.6,3.05,1.56-.6L2,116c.59-1.19.34-.92.71-1.32.83-4.82,1.51-5.36,2.43-8.73,0,0,0,.06,0,0,0-2.45,1-5.6,1.48-7.43l.4-.68c.73-1,.49-5.58.9-4a169.23,169.23,0,0,1,10.7-30.4c.28-1.58,3.72-7.6,2.11-5.7,1.78-2.22,5.88-9.32,7.48-11.92a1.18,1.18,0,0,1-.29.67,22.51,22.51,0,0,0,3.44-5.41,16.89,16.89,0,0,1,3.62-5c-.2-1.21,6.12-8,7.46-10.9.57-.41.83-.49.78-.22,1.62-1.88,3.27-3.83,5-5.74s3.52-3.81,5.27-5.65S56.88,10,58.58,8.45a31.86,31.86,0,0,1,5-3.93c.31-.22.63-.43,1-.62a4.41,4.41,0,0,1,1-.38A1.79,1.79,0,0,1,67,3.66a3.84,3.84,0,0,1,1.28,1.68A12.44,12.44,0,0,1,69.13,8c.76,3.88.68,8,1.05,11.06-.32,5.11-1.56,13.33-2.27,20.51v-.71C66.8,46.92,65,56.93,64.43,62.52c-1.31,2.2-1.85,5.68-2.85,9.07-.72,5.41-3.23,16.12-4.8,24.28-.68,1.15-1.43,6.72-2.1,7C50.31,125.77,42.5,153.55,35,177.28l0-.35c-.56,3.19-.88,7-1.38,10.24-.14.3-.22.24,0-.43-1.13,4.41-2.83,8.35-4,12.74-.08-.06-.08-.06,0-.79-.92,4.17-2.87,8.34-3.83,13.29l-.22.23L25,215.35c-.17-.13-.41-.33.13-2Q21,227.45,16.91,241.72c-2.7,9.54-5.47,19.06-8,28.79-.15.62-.3,1.21-.43,1.93,0,.1,0,.18,0,.34V273s0,.06,0,.18a2.21,2.21,0,0,0,.07.3,1.39,1.39,0,0,0,1.16.89,1.41,1.41,0,0,0,1.08-.4l.11-.13a1.31,1.31,0,0,0,.2-.31l.08-.17.12-.27c.13-.33.23-.63.34-.94.41-1.21.78-2.4,1.16-3.6l2.17-7.2q2.16-7.19,4.31-14.4c2.88-9.6,5.82-19.19,8.92-28.71l-.27,1.45L30,212.21c.08.07,0,.44-.06.8,3.37-9.3,6.13-19.21,9.36-28.3.07.08-.23,1.52.31.28,1.84-6.92,4.42-10.6,4.6-14.33.15-.3.46-.43.3.29C50.78,152.12,58,133,65.55,114.51c2.64-7.91,6-16.08,9.53-24.25,1.78-4.08,3.61-8.15,5.45-12.19l2.8-6,1.43-2.95.68-1.37.68-1.3,0,.34a15.59,15.59,0,0,1,2-3.06,2.72,2.72,0,0,1,.38-.29.37.37,0,0,1,.44,0,1.26,1.26,0,0,1,.23.81A12,12,0,0,1,89.15,66c-.14,1.23-.34,2.45-.57,3.79s-.52,2.81-.79,4.22c-1.1,5.64-2.3,11.32-3.53,17-2.44,11.39-5,22.86-7.39,34.24-2.12,9.41-3.28,15.83-5.37,25.3l-.29.18c-2.63,16.14-8.34,33.29-11.26,50.09l-.06-1.22c-.1,2.69-2.55,10-1.46,9.2l-1,2.87C55.9,223.25,52,232.07,49.27,246l0-1a103.25,103.25,0,0,1-2.63,10.63,11.15,11.15,0,0,1,.14-1.12q-1.42,4.2-2.63,8.69-.6,2.24-1.14,4.53a38.85,38.85,0,0,0-.87,4.71,2,2,0,0,0,0,.35,1.49,1.49,0,0,0,0,.25.75.75,0,0,0,.09.19.49.49,0,0,0,.4.22.59.59,0,0,0,.23-.05l.09-.05.13-.12.13-.16a3.09,3.09,0,0,0,.17-.29,11.1,11.1,0,0,0,.51-1.12c.31-.74.59-1.48.86-2.23.54-1.5,1.05-3,1.56-4.5,1-3,2-6,3-9l-.1,1.46c1.54-5.84,5.46-16.17,7.78-23.75l0,.52,1-3.88.38,0C61.78,220.62,64.55,211.33,67.73,201.79Z" transform="translate(-0.49 -2.01)"/><path class="cls-1" d="M101.83,132s0-.07,0-.1C101.85,131.56,101.84,131.71,101.83,132Z" transform="translate(-0.49 -2.01)"/><path class="cls-1" d="M5.42,104.69,5.1,105.9A7.27,7.27,0,0,0,5.42,104.69Z" transform="translate(-0.49 -2.01)"/><polygon class="cls-1" points="238.11 246.74 237.68 246.8 236.78 247.51 238.11 246.74"/><path class="cls-1" d="M232.15,252.09c.22,0,.15.1.38.08,1.21-.79,2.42-1.58,3.62-2.39C234.21,250,233.44,252,232.15,252.09Z" transform="translate(-0.49 -2.01)"/><path class="cls-1" d="M231,252.45a4.7,4.7,0,0,0-2.44,1.25C229,253.22,231.44,252.75,231,252.45Z" transform="translate(-0.49 -2.01)"/><path class="cls-1" d="M212.08,267l.23-.44A1.53,1.53,0,0,0,212.08,267Z" transform="translate(-0.49 -2.01)"/><path class="cls-1" d="M186.43,269.55l-.34-.4a30.68,30.68,0,0,0,.89,5.51,7.75,7.75,0,0,0,3.25,4.78,8.71,8.71,0,0,0,5.82.81,17.62,17.62,0,0,0,5.47-1.92l-.42.32a29.92,29.92,0,0,0,11-8.91,27.79,27.79,0,0,0,3.41-6.11,19.2,19.2,0,0,0,1.59-6.76,6.49,6.49,0,0,0-.8-3.4,4.38,4.38,0,0,0-1.19-1.31,5,5,0,0,0-1.59-.73,11.61,11.61,0,0,0-6.79.67,15.49,15.49,0,0,0-9.3,9.68c.08-.28,0-.41.1-.71a12.12,12.12,0,0,0-.29,1.41c-.09.48-.18,1-.28,1.46-.13.24-.09-.31-.06-.64a11.54,11.54,0,0,0,0,7.53,20.72,20.72,0,0,0,3.1,5.66c.8.79,1.31.94,1,.39a13.35,13.35,0,0,0,9.73,3.9,14,14,0,0,0,9.58-4.64,15.3,15.3,0,0,0,4.18-9.83,14.27,14.27,0,0,0-.89-5.26,13.92,13.92,0,0,0-2.63-4.53c-.36-.57-.35-.75-.07-.74a11.37,11.37,0,0,0-3.71-2.42,11.11,11.11,0,0,0-4.33-.71c-1.43,0-2.94.42-3.49,1.14a2,2,0,0,0-.42,1.35,1.48,1.48,0,0,0,.5,1.15,3.36,3.36,0,0,0,1.59.63,11.44,11.44,0,0,0,2.24.15,25,25,0,0,0,4.67-.56,83.67,83.67,0,0,0,9.44-2.6c.4-.39-1.34.2-.21-.45-2,.53-3.8,1.26-5.56,1.88a18.72,18.72,0,0,1-5.34,1.26l.42-.31c-1.32.18-1.42.29-1.55.44a.55.55,0,0,1-.36.18,3.56,3.56,0,0,1-1.26,0c-1-.15.25-.3-.22-.3a7,7,0,0,1-3.43-.49,1,1,0,0,1-.5-.66,1.89,1.89,0,0,1,.07-1.1,1.39,1.39,0,0,1,.68-.76,4.64,4.64,0,0,1,1.49-.52,12.56,12.56,0,0,1,3.73-.08,28.23,28.23,0,0,1,3,1.58,7.49,7.49,0,0,1,2.63,3c.95,1,1.51,2.28,2,2.65a14.55,14.55,0,0,1,1,7,14.7,14.7,0,0,1-2.58,6.58,15.31,15.31,0,0,1-5.3,4.79,12.31,12.31,0,0,1-6.85,1.42,13.29,13.29,0,0,1-10.84-8.45,14.4,14.4,0,0,1,2.49-13.86,12.8,12.8,0,0,1,2.34-2.68,12.44,12.44,0,0,1,3.23-1.9,13.49,13.49,0,0,1,3.77-1,6.92,6.92,0,0,1,3.68.48,3.45,3.45,0,0,1,1.89,2.68,10.15,10.15,0,0,1-.29,3.91,31.34,31.34,0,0,1-3.29,7.81c-.07,0-.09,0-.07-.06a23.45,23.45,0,0,1-4,5.16,25.68,25.68,0,0,1-5.68,4.25,24.3,24.3,0,0,1-3.24,2,14.34,14.34,0,0,1-4.88.95,6.26,6.26,0,0,1-4.3-1.41,7.8,7.8,0,0,1-2-4.18,23.21,23.21,0,0,1-.4-5c0-1.71.16-3.43.34-5.16l.32-2.59.48-3.49a35.74,35.74,0,0,0,.37-3.63,10.76,10.76,0,0,0-.23-2.39,3.31,3.31,0,0,0-.33-.91.91.91,0,0,0-.46-.39,1,1,0,0,0-.61.09,5,5,0,0,0-1.58,1.38,27,27,0,0,0-3.21,6.08l-1.12,2.75-1,2.47c-1.27,3.31-2.49,6.63-3.72,9.94-.62,1.63-1.23,3.33-1.91,4.85l-.13.25-.05.1,0,0s-.07-.07.22.15.33.23.43.37a.63.63,0,0,0,.09.12s0,.05,0,0l0,0s.26-.11.41-.09a1.89,1.89,0,0,0,.32,0h.24a1,1,0,0,1,0-.19c0-.36.14-.79.23-1.21.19-.84.4-1.7.61-2.55.86-3.41,1.79-6.82,2.7-10.23s1.74-6.72,2.51-10.05l.28-1.26.34-1.57c.26-1.32.51-2.66.65-3.88a9.21,9.21,0,0,0,0-2.93,4.23,4.23,0,0,0-.3-.95,1.08,1.08,0,0,0-1.63-.7,3.54,3.54,0,0,0-.73.4,6.82,6.82,0,0,0-1.65,1.67,29.58,29.58,0,0,0-1.82,2.91l-.9,1.62-.62,1.14c-1.41,2.64-2.75,5.27-4.09,7.88-2.7,5.2-5.32,10.42-8.38,15.23a26.84,26.84,0,0,1-2.44,3.34,8.17,8.17,0,0,1-.65.66,1.26,1.26,0,0,1-.26.21.41.41,0,0,1-.58-.06.94.94,0,0,1-.15-.28,1.08,1.08,0,0,1-.06-.19c0-.14-.08-.3-.11-.46a20,20,0,0,1-.29-2,41.5,41.5,0,0,1-.27-4.28,44.24,44.24,0,0,1,3.51-17.07c.07.08.22-.12-.08.6q.33-.75.69-1.47c.12-.23.25-.47.37-.68l.19-.29,0-.05c0-.06.08.12-.28-.25-.12-.12-.25-.31-.32-.31a.11.11,0,0,1,0-.12c0-.06,0,0-.05,0a.36.36,0,0,0-.16,0l-.23,0a.82.82,0,0,1-.22,0H162a5.53,5.53,0,0,1-.11.66l-.17.77c-.13.52-.27,1-.41,1.55-.58,2.07-1.25,4.08-2,6.05a77.79,77.79,0,0,1-5.12,11.34l-.07-.07c-1.24,2.2-2.73,4.43-4.77,5.7a4.58,4.58,0,0,1-1.58.61,2.89,2.89,0,0,1-.83,0,3.47,3.47,0,0,1-.82-.15,6.88,6.88,0,0,1-3-2.07,21.25,21.25,0,0,1-3.95-6.76,18.08,18.08,0,0,1-1.1-7.71,23.82,23.82,0,0,1,6.51-14,26.18,26.18,0,0,1,6-4.75,24.52,24.52,0,0,1,7-2.83,6.61,6.61,0,0,1,4.32.51c1.23.78,1.46,2.44,1.25,3.94-.44,3.07-1.82,6-3.13,9-2.61,5.92-5.76,11.83-10.39,16.59a27.2,27.2,0,0,1-8,5.77c-.74.36-1.54.61-2.31.92s-1.59.43-2.39.66a35.77,35.77,0,0,1-4.92.8,20.39,20.39,0,0,1-4.94-.13,11,11,0,0,1-4.56-1.71,9.79,9.79,0,0,1-3.18-3.64,16.34,16.34,0,0,1-1.4-4.67l.19,0a31.9,31.9,0,0,1-.15-7.75,61.52,61.52,0,0,1,1.22-7.65,140.09,140.09,0,0,1,4.21-14.83c3.28-9.74,7.11-19.27,10.77-29.05,4.12-9.91,8-20.25,11.91-30.61s7.86-20.73,12.55-30.5c1.37-2.55,2.72-5.32,4.16-8.16.73-1.42,1.47-2.85,2.29-4.25a20,20,0,0,1,1.29-1.95,5.91,5.91,0,0,1,.79-.87,1.26,1.26,0,0,1,1.08-.41,1.66,1.66,0,0,1,.82,1.23,10.08,10.08,0,0,1,.25,1.57,27.33,27.33,0,0,1,0,3.26,63,63,0,0,1-.59,6.38,74.18,74.18,0,0,1-2.51,11.48c-3.63,12.43-7.49,24.53-11.59,36.57s-8.52,24-13.65,35.89c-2.68,5.34-5.37,10.66-8.18,15.91s-5.64,10.47-8.73,15.54c-1.54,2.53-3.15,5-4.87,7.42a53.76,53.76,0,0,1-5.69,6.84,17.13,17.13,0,0,1-3.57,2.77,6.79,6.79,0,0,1-2.21.8,3.61,3.61,0,0,1-2.4-.43,4.64,4.64,0,0,1-1-.74,7.78,7.78,0,0,1-.71-.92,9.45,9.45,0,0,1-1-2,21.23,21.23,0,0,1-1-4.27,32.75,32.75,0,0,1-.85-8.4,33.36,33.36,0,0,1,1.47-8.63,46.7,46.7,0,0,1,3.46-8.24c.35-.67.71-1.28,1.08-2a1.59,1.59,0,0,0,.08-.22s0-.35-.15-.45a.44.44,0,0,0-.5-.07c-.1,0-.1.06-.1.06l0,0-.06,0-.22.27-.34.49-.62,1c-.81,1.29-1.57,2.61-2.3,3.95l.42-.26c-2.8,3.45-3.92,9-6.17,10.84l.18-.42c-1.59,1.76-1.5,5.31-2.74,6.23l0,.46c-1.29,2.49-.42.14-1.56,2-.36.73.27.5-.68,1.91-1.13-.2-3.1,6.13-4.26,5.72.74-1.35-1.57,1.88-.14-1.26-.58.8-2.78,4.94-2.13,4.82.29.62-.18,2.45,1.57.15l-.08-.69c.82-.65.53-.55,1-.7,1.84-3.25,2.59-3.4,4.09-5.63,0,0,0,0,0,0a21.27,21.27,0,0,1,2.69-5.15l.48-.4c.83-.54,1.26-4.15,1.4-2.77,1.75-3.36,3.69-6.94,5.72-10.59,1-1.82,2-3.67,3.11-5.49.53-.91,1.07-1.84,1.61-2.69.12-.2.29-.45.34-.51l-.28-.25-.21-.15a2.82,2.82,0,0,1-.33-.36c0-.09-.09-.09-.11-.12s0-.1,0-.07-.1,0-.33,0a2.26,2.26,0,0,1-.52-.17,2.64,2.64,0,0,0-.33-.14l-.11,0h0v0l-.15.31-.73,1.43c-.13.61-.85,2.11-1.29,3.31s-.67,2-.08,1.26a17.35,17.35,0,0,0-2.21,5,27.65,27.65,0,0,0-1,5.59c-.06-.1-.13-.21-.06-.59a10.51,10.51,0,0,0-.22,5.15,15.71,15.71,0,0,1,.2,4.91c.42.3.6,2.29,1.19,4.53a14.39,14.39,0,0,0,1.34,3.35,5.17,5.17,0,0,0,2.34,2.16c.48.54.76.75.41.76a4.2,4.2,0,0,0,1.06.39,3.92,3.92,0,0,0,1.12.12,4.47,4.47,0,0,0,1-.09,6.1,6.1,0,0,0,1-.25,11.32,11.32,0,0,0,3.08-1.69,30.92,30.92,0,0,0,4.57-4.31,81.32,81.32,0,0,0,6.74-8.85c2.56-5,7.33-11.41,8.84-16.05a102.47,102.47,0,0,0,7.55-14l-.13.53c2.73-5.62,5.92-12.75,7.08-16.91,1.53-1.35,2.42-3.91,3.7-6.3,1.23-4,4.4-11.81,6.17-17.93.71-.78,1.57-5,2.22-5.13,2.28-8.45,5-17.79,7.41-27.39,1.22-4.79,2.39-9.65,3.35-14.51.47-2.43.9-4.86,1.19-7.33.07-.62.13-1.23.18-1.86,0-.31,0-.63.05-.95l0-.48v-.74a9.08,9.08,0,0,0-.53-3,3.68,3.68,0,0,0-.67-1.07,4.63,4.63,0,0,0-1-.69,3,3,0,0,0-1.69,0,2.72,2.72,0,0,1,.37-.13,4.61,4.61,0,0,0-2.36,1.91,12.52,12.52,0,0,0-.93,1.51,2,2,0,0,0-.15.3l-.1.25-.2.49c-.51,1.31-.92,2.63-1.33,3.84-.16.19-.23.12,0-.34-1.54,3.13-3.42,5.83-4.76,9-.08-.07-.08-.07.07-.62-1.11,3.07-3.16,6-4.25,9.68l-.22.14-.75,2.33c-.16-.13-.39-.33.18-1.51-5.87,13.69-11.24,27.8-16.72,42-2.72,7.1-5.42,14.24-8,21.42s-5.14,14.42-7.34,21.77l.15-1.13q-.7,2.9-1.3,5.81c-.08,0-.06-.34,0-.62a64.08,64.08,0,0,0-2.41,11.28,41.3,41.3,0,0,0,0,11.54c-.11,0-.5-1.14-.4-.05a19.57,19.57,0,0,0,2.88,6.75,6.07,6.07,0,0,0,4.45,2.7c.23.16.33.46-.27.3a16.2,16.2,0,0,0,6,1,31.8,31.8,0,0,0,5.89-.64,26.26,26.26,0,0,0,10.91-4.6,37.52,37.52,0,0,0,8.21-8.48,67.47,67.47,0,0,0,5.78-10.12,94,94,0,0,0,3.24-9.35,14.81,14.81,0,0,0,.38-2.6,5.45,5.45,0,0,0-.53-2.76,3.91,3.91,0,0,0-2.27-1.83,7.78,7.78,0,0,0-2.73-.28,17.61,17.61,0,0,0-5.11,1.23,26.12,26.12,0,0,0-4.64,2.32,23.13,23.13,0,0,0-7.23,7.1l-.11-.17a25,25,0,0,0-4.38,12.2,18.53,18.53,0,0,0,.75,6.57,26.07,26.07,0,0,0,2.74,6.07,17.47,17.47,0,0,0,2,2.67,7.86,7.86,0,0,0,2.77,2,4.72,4.72,0,0,0,3.45.05,8.48,8.48,0,0,0,2.88-1.89,24,24,0,0,0,4-5.41,55.6,55.6,0,0,0,2.9-6,72.63,72.63,0,0,0,3.27-9.3,41.46,41.46,0,0,0,1.09-4.61,1.32,1.32,0,0,0,0-.2s0,0,0-.1S163,251,163,251a.31.31,0,0,0-.2.07l0,0a1.57,1.57,0,0,0-.21.28c-.12.18-.22.36-.33.54-.2.37-.39.75-.58,1.14-.37.77-.73,1.59-1.08,2.45l-.29.08c-1.86,6-3.37,12.43-2.95,19.11,0,.83.09,1.66.21,2.5a8.06,8.06,0,0,0,.26,1.32,3.8,3.8,0,0,0,.63,1.35,1.7,1.7,0,0,0,1.25.71,2.6,2.6,0,0,0,1.42-.39,8.71,8.71,0,0,0,2.05-1.85,38.82,38.82,0,0,0,5.1-8.5l-.15,1c.57-2,3.88-6.84,2.74-6.57l1.28-1.91a59.89,59.89,0,0,1,4.32-9.29l1.27-2.22c.45-.79.91-1.54,1.35-2.26s.89-1.43,1.37-2.11c.24-.34.48-.69.76-1a5.07,5.07,0,0,1,.46-.47c.16-.13.38-.3.61-.21a.76.76,0,0,1,.28.55,3.38,3.38,0,0,1,.07.63c0,.43,0,.85,0,1.29,0,.86-.15,1.76-.25,2.76a3.8,3.8,0,0,0-.13-.49c-.12,1.22-.37,2.8-.65,4.23a30.91,30.91,0,0,1-.95,3.78c.05-.33,0-.19.06-.87-1.43,4.28-2.59,8.87-3.67,13.56-.53,2.35-1.07,4.71-1.51,7.09q-.09.45-.15.9c0,.16,0,.31,0,.48a.39.39,0,0,0,0,.15s0,0,0,.13a.2.2,0,0,0,.24.09c.22-.11.19-.18.25-.25.3-.57.5-1.12.73-1.68l1.25-3.36v1.15c.6-2.23,1.7-5.28,2.93-8.48l3.58-9.08,0,.51c.27-.84.59-1.79,1-2.83l0,.86a15.43,15.43,0,0,1,1.08-1.88,2.86,2.86,0,0,1,.36-.42c.13-.12.32-.24.49-.15s.24.63.27.95c0,1.35-.2,2.71-.35,4.19-.14,1.33-.38,3.45-.52,5.29A54.3,54.3,0,0,0,186.43,269.55Z" transform="translate(-0.49 -2.01)"/><path class="cls-1" d="M196.91,263.3l0-.07C197,263,196.94,263.1,196.91,263.3Z" transform="translate(-0.49 -2.01)"/><path class="cls-1" d="M92.76,269.13l-.53.81A4.5,4.5,0,0,0,92.76,269.13Z" transform="translate(-0.49 -2.01)"/><path class="cls-2" d="M109.74,231.6a.64.64,0,0,0,.3.82c.36.08,1-.82.8-1.11s-.55-.17-.83,0A.67.67,0,0,0,109.74,231.6Z" transform="translate(-0.49 -2.01)"/><polygon class="cls-1" points="109.73 229.79 109.73 229.79 109.73 229.79 109.73 229.79"/><polygon class="cls-1" points="109.73 229.79 109.73 229.79 109.73 229.79 109.73 229.79"/><path class="cls-1" d="M110.22,231.8Z" transform="translate(-0.49 -2.01)"/><path class="cls-1" d="M110.49,232.17Z" transform="translate(-0.49 -2.01)"/><path class="cls-1" d="M110.36,231l0-.33c0,.59-.09,0-.1.27l0-.12c-.15-.1-.1.47,0,.72l-.08-.16.13.28-.08-.17c-.27-.49.13.32-.08,0l.23.41,0,.1s.06.1,0,0a.36.36,0,0,0-.08-.09h0a.27.27,0,0,0-.07-.06h0l0,0,0,0h0l0,.07.14.2.18.3c0,.09,0,0,0,0l-.31-.51h0v0l0,.07s0,.06,0,0,0,0,0,.07l0,.06h0c0,.07,0-.17,0,0l-.08-.4a3.78,3.78,0,0,1,.08.39v-.09a1.48,1.48,0,0,1,0-.34.62.62,0,0,1,.15-.29,1.36,1.36,0,0,1-.26,0h0l-.29,0h0l-.08,0,.09,0s0,0,0,0,0,0,.32.24c-.11,0-.08.14,0,.37l-.14-.12c.24.34-.53-.3-.34-.08-.16-.15,0,.06.12.3s.11.48,0,.22c-.13-.45,0-.19-.08.07s-.29.46-.11,0a2.87,2.87,0,0,1,.17-.35l0,0s.07-.06.1-.1h0l-.07.05-.22.13a4,4,0,0,1-.59.22c.2-.17,0-.14-.15-.19s-.24-.15.28-.26c-.34,0-.13-.06.14-.08s.59,0,.5,0l-.23,0c.69.12-1-.22.06,0l0,0c.52.13-1.22-.33-.6-.18l-.26-.08c-.06,0,.29.08.4.1s-.46-.14-.31-.11a6.88,6.88,0,0,1,.92.3h0l.23.1-.05,0-.09,0-.18-.08-.35-.15c-.22-.09-.42-.18-.62-.25l.36.16-.46-.18c-.06,0-.61-.18-.85-.22l0,0c.44.18.16.12.09.12l-.21-.05c-.46-.1.86.3.09.08a.45.45,0,0,1,.14.38c.29,0,0,.08.55.09-.67,0-.84.08-.81.11s-.14,0-.11,0c-.86.1.8,0-.25.16.74,0-.23.14.65.07l-.45.06c0,.11-.24.28-.25.38.65-.1-.23.29.65.06-.17.1-.48.34-.12.26l-.1,0c.08.06.18.15.7-.1a2.47,2.47,0,0,0-.78.59c.37-.15.36,0,.71-.12-.29.27.18-.05-.25.34.54-.24.74-.31.89-.15s.33.57.7,1v0a4.74,4.74,0,0,0,.13-1.44.43.43,0,0,1,0,.15c0-.12.17.43.22.31a.72.72,0,0,1,0,.19c0-.26.29.4.19,0l.06.14,0-.22c.07.18.17.45.13.4.31,0,.4-.33.39-.58s-.08-.49,0-.52l.12.13-.21-.25.14.13c.28.18-.09-.22,0-.2s.21.18.3.24c-.39-.35.57.36-.27-.31l.3.23c-.22-.31-.16-.36,0-.37-.81-.55,0-.21-.66-.61l.18.08c-.6-.34.11-.15,0-.33.08,0-.14-.1-.15-.14h.24c-.46-.06-.26-.06-.07-.17s.27-.37-.2-.13l.28-.18c-.43.28.06-.22-.58.38l.18-.19c-.21.2-.28.3-.27.27l.07-.1c.09-.16.15-.4,0-.06l.08-.19c-.08.14-.12.27-.07.08l0-.14c.16-.81-.16.05-.16,0l0-.39c-.07.45-.09,0-.13.23v-.18l0,.26v-.37C110.42,230.59,110.39,230.91,110.36,231Z" transform="translate(-0.49 -2.01)"/><path class="cls-1" d="M110.16,231.45h0S110.15,231.43,110.16,231.45Z" transform="translate(-0.49 -2.01)"/><path class="cls-1" d="M108.11,231.11h.08C108.12,231.09,108.13,231.11,108.11,231.11Z" transform="translate(-0.49 -2.01)"/></g></g></svg>