<svg xmlns="http://www.w3.org/2000/svg" viewBox="0 0 238.11 278.78"><defs><style>.cls-1{fill:#fff;}.cls-2{fill:#fc0000;}</style></defs><g id="Calque_2" data-name="Calque 2"><g id="Calque_2-2" data-name="Calque 2"><polygon class="cls-1" points="76.42 277.53 76.65 277 76.64 275.5 76.42 277.53"/><path class="cls-1" d="M78.19,270c-.11.27-.18.11-.29.38l-.28,5.7C78.63,273.72,77.52,271.55,78.19,270Z" transform="translate(-0.49 -2.01)"/><path class="cls-1" d="M78.61,268.4a7.61,7.61,0,0,0,.39-3.6C79.16,265.62,78.08,268.77,78.61,268.4Z" transform="translate(-0.49 -2.01)"/><path class="cls-1" d="M83,153.93c.07-.19.15-.45.21-.65A2.78,2.78,0,0,0,83,153.93Z" transform="translate(-0.49 -2.01)"/><path class="cls-1" d="M67.76,201.72l.15.6c2.43-9,6.41-18.83,9.43-28.25l-.11.67c3.54-9.93,6.91-19.56,10.43-29.09,1.76-4.76,3.55-9.49,5.5-14.19,1-2.35,2-4.69,3.12-7,.57-1.15,1.16-2.29,1.84-3.4a13.06,13.06,0,0,1,1.16-1.63,4.21,4.21,0,0,1,.72-.68,1.15,1.15,0,0,1,.92-.28,1.64,1.64,0,0,1,.84,1.09,8.17,8.17,0,0,1,.32,1.44,23.41,23.41,0,0,1,.18,3c0,2-.07,3.92-.2,5.9,0-.39-.09-.53-.1-.93a28.15,28.15,0,0,1,0,3.89c-.11.35-.12-.39-.11-.82-1,5.18-1.48,15.39-2.4,18.58-.16,1.47,0,2.15.27,1.36-2.76,19.31-6.43,39.85-9.69,59.44-.25.92-.43,1.06-.57.77-.57,4.21-1.24,8.45-2,12.72l-1.15,6.41L85,237.71c-1.78,8.56-3.69,17.14-5.53,25.63.09.7.6-1.68.49,0,1.43-5.41,1.52-10.13,3-15l.09.68c.9-3.58-.4-.85.66-4.53.49-1.44.21.42.37-.26.78-3.84,1.58-7.76,2.36-11.62s1.39-7.71,1.82-11.38c.83-1.69,1.6-8.26,2.6-11,.19-2,.61-4,.43-4.83C94,192,96.37,178.33,98.55,164.56c1.09-6.89,2.12-13.81,3-20.78.45-3.48.86-7,1.19-10.48a89.43,89.43,0,0,0,.53-10.66l-.06-.58c0-.28-.06-.56-.11-.82a9.56,9.56,0,0,0-.34-1.53,3.2,3.2,0,0,0-.25-.68,2.76,2.76,0,0,0-.34-.58,2.11,2.11,0,0,0-1-.82,1.89,1.89,0,0,0-1.29.28,4.24,4.24,0,0,0-1.1.92,10.66,10.66,0,0,0-1,1.27c-.15.22-.31.49-.43.68l-.31.52c-.8,1.4-1.53,2.84-2.25,4.3-1.42,2.93-2.79,6-4.14,9.08-2.7,6.22-5.32,12.71-7.59,19.3-.07.09-.1.06-.09,0-1.54,4.85-3.94,11.86-6.06,17.55l-1.32,5c-6.39,17.1-12.31,34.58-18.18,52.14-2.95,8.78-5.87,17.58-8.88,26.35-1.51,4.38-3,8.77-4.67,13.08-.42,1.07-.84,2.14-1.3,3.16-.11.25-.23.5-.34.73s-.12.21-.17.28l0,0h0l.29.27a.94.94,0,0,1,.35.39s.05,0,0,.08,0,0,0,0,.09,0,.17-.08a.64.64,0,0,1,.24,0l.36-.06.17,0h0a.58.58,0,0,0,0-.1c0-.1,0-.22,0-.35s.08-.52.13-.79c.44-2.21,1-4.46,1.62-6.69,5.52-20.31,10.44-39.48,15-58.56S69.29,168.16,73.11,148c.08.07.2-.24,0,.8,2.38-11.6,5-22.07,7.12-33l.08,0c1.25-6.8,2.63-13.73,4-20.7s2.85-14,4.28-21c.34-1.75.68-3.51,1-5.27a37.39,37.39,0,0,0,.66-5.41,4.1,4.1,0,0,0-.08-.81,1.26,1.26,0,0,0-.31-.62.89.89,0,0,0-.52-.29,1.06,1.06,0,0,0-.53,0,2,2,0,0,0-.81.63c-.16.2-.31.4-.44.6a22.72,22.72,0,0,0-1.35,2.37c-.8,1.6-1.51,3.21-2.2,4.82-2.74,6.46-5.11,12.92-7.28,19.22C65.23,119.78,53.3,154.5,42.12,187l-.15-.13c-4.37,13-9,25.74-13.69,38.4S18.88,250.59,14,263.37c-.69,1.62-1.38,3.25-2.1,4.86-.36.8-.73,1.6-1.13,2.38-.19.39-.39.78-.61,1.14-.11.18-.22.35-.33.5a1.14,1.14,0,0,1-.15.19l0,0a2,2,0,0,1,.2.39c0,.12,0,0,.09,0a.57.57,0,0,1,.22-.11c.14,0,.11-.05.11-.05a.81.81,0,0,1,0-.2,4,4,0,0,1,0-.59c0-.42.1-.85.17-1.28.14-.87.31-1.74.5-2.61.36-1.75.77-3.49,1.19-5.24,1.68-7,3.51-14,5.34-21.06,3.68-14.06,7.48-28.12,11.65-41.73,5.72-16.68,10.07-39.48,15.31-55.18,5.15-16.2,9.54-32.37,13.37-48.66s7.15-32.73,9.73-49.5a210,210,0,0,0,3.33-23.2A81,81,0,0,0,71,11.78a26.06,26.06,0,0,0-1-5.66,9.13,9.13,0,0,0-1.16-2.51,3.41,3.41,0,0,0-2-1.49A3.53,3.53,0,0,0,65.62,2a5.94,5.94,0,0,0-1.28.35A11.16,11.16,0,0,0,61.9,3.7a36.14,36.14,0,0,0-4.35,3.69c-2.76,2.66-5.35,5.51-7.94,8.35s-5.1,5.72-7.63,8.57c-1.3,1.4-2.44,2.93-3.65,4.39s-2.43,2.93-3.57,4.44c-1.88,3.07-4.06,6-6,9.24-1,1.59-2.09,3.15-3.08,4.79l-3,4.95A141.14,141.14,0,0,0,12.27,73.47L12.7,73C10,78.17,9.33,85.39,7.39,88.54l.12-.6a13.82,13.82,0,0,0-1,4.82c-.11,1.64-.19,3.13-.73,3.94l.13.54c-.78,3.59-.4.35-1.13,3.09-.21,1,.38.51-.26,2.64-.61.12-1,2.35-1.36,4.54s-.7,4.37-1.33,4.39c.34-2-1,3-.49-1.47C1,111.68.1,117.83.69,117.35c.48.6.6,3,1.56-.6L2,116c.59-1.19.34-.92.71-1.32.83-4.81,1.51-5.36,2.43-8.73,0,0,0,.07,0,0,0-2.44,1-5.59,1.48-7.42l.4-.68c.73-1,.49-5.59.9-4a170,170,0,0,1,10.69-30.4c.29-1.57,3.72-7.59,2.12-5.69,1.77-2.22,5.87-9.32,7.47-11.92a1.18,1.18,0,0,1-.29.67,22.83,22.83,0,0,0,3.44-5.41,16.64,16.64,0,0,1,3.61-5C34.68,35,41,28.21,42.34,25.27c.57-.42.83-.5.78-.22,1.62-1.89,3.27-3.83,5-5.75s3.52-3.81,5.26-5.64,3.48-3.6,5.19-5.18a30.89,30.89,0,0,1,5-3.94,10.75,10.75,0,0,1,1-.63,5.38,5.38,0,0,1,1-.39,2.72,2.72,0,0,1,.85-.11,2.06,2.06,0,0,1,.7.23,3.65,3.65,0,0,1,1.24,1.67A12.35,12.35,0,0,1,69,8c.69,3.88.55,8,.88,11.07-.39,5.11-1.73,13.31-2.53,20.48v-.71c-1.19,8-3.12,18-3.72,23.61-1.34,2.18-1.9,5.66-2.94,9-.77,5.4-3.37,16.08-5,24.23-.69,1.14-1.48,6.7-2.15,7C49,125.55,41,153.27,33.47,177l.05-.35c-.56,3.19-.9,7-1.4,10.24-.14.29-.22.23,0-.43-1.13,4.4-2.84,8.34-4,12.73-.08-.06-.08-.06,0-.79-.92,4.17-2.86,8.34-3.81,13.3l-.22.23L23.44,215c-.16-.12-.41-.32.12-1.95q-4.08,14.06-8,28.39-2,7.17-3.82,14.4-.93,3.62-1.8,7.27c-.56,2.45-1.14,4.87-1.53,7.44,0,.33-.09.66-.12,1a5.86,5.86,0,0,0,0,1.2,2.13,2.13,0,0,0,.1.51l.09.22a1.59,1.59,0,0,0,.47.57,1.42,1.42,0,0,0,.53.25,1.78,1.78,0,0,0,.52,0,1.42,1.42,0,0,0,.42-.11,2.08,2.08,0,0,0,.38-.22,3.29,3.29,0,0,0,.37-.35,6.63,6.63,0,0,0,.67-1c.67-1.2,1.17-2.35,1.68-3.51,1-2.33,1.92-4.67,2.83-7,1.8-4.69,3.52-9.4,5.22-14.11q5.09-14.16,10.15-28.33l-.32,1.45,2.29-7.43c.08.07,0,.43-.08.8,3.61-9.23,6.5-19.1,9.77-28.17.08.07-.23,1.51.31.27,1.88-6.91,4.44-10.6,4.6-14.33.16-.29.47-.43.31.29,6.24-18.87,13-38.11,20-56.87,2.37-8,5.37-16.3,8.51-24.63l4.78-12.47c1.62-4.13,3.19-8.25,4.89-12.21l.14.16a18.32,18.32,0,0,1,2-3.6,1.13,1.13,0,0,1,.29-.27s.05,0,0,0,0-.11,0-.07,0,0,0,0,0,0,0,0l0,0a2.54,2.54,0,0,1,.12.92c0,.69-.08,1.39-.16,2.09-.34,2.81-.86,5.63-1.39,8.45-1.07,5.64-2.27,11.31-3.5,17-2.44,11.39-5,22.86-7.39,34.23-2.12,9.41-3.28,15.83-5.37,25.29l-.29.19C68.55,167.06,62.84,184.2,59.92,201l-.05-1.22c-.11,2.69-2.55,10-1.46,9.2l-1,2.86c-1.56,11.52-5.45,20.34-8.2,34.26l0-1a105.28,105.28,0,0,1-2.64,10.64,9.6,9.6,0,0,1,.15-1.13q-1.43,4.2-2.64,8.69c-.4,1.49-.78,3-1.13,4.53a34.9,34.9,0,0,0-.86,4.72,2.62,2.62,0,0,0,0,.38.53.53,0,0,0,0,.16l0,.09a.83.83,0,0,0,.16.17.48.48,0,0,0,.45.08c.09,0,.12-.05.13-.07l.07,0a2.17,2.17,0,0,0,.43-.62c.19-.38.35-.75.5-1.12.31-.74.59-1.48.86-2.23.54-1.5,1-3,1.55-4.51,1-3,2-6,3-8.94l-.1,1.46c1.54-5.84,5.46-16.17,7.78-23.74l0,.51,1-3.87h.39C61.81,220.55,64.58,211.26,67.76,201.72Z" transform="translate(-0.49 -2.01)"/><path class="cls-1" d="M101.83,132a.43.43,0,0,1,0-.11C101.84,131.6,101.83,131.75,101.83,132Z" transform="translate(-0.49 -2.01)"/><path class="cls-1" d="M5.42,104.69,5.1,105.9A7.27,7.27,0,0,0,5.42,104.69Z" transform="translate(-0.49 -2.01)"/><polygon class="cls-1" points="238.11 246.74 237.68 246.8 236.78 247.51 238.11 246.74"/><path class="cls-1" d="M232.15,252.09c.22,0,.15.1.38.08,1.21-.79,2.42-1.58,3.62-2.39C234.21,250,233.44,252,232.15,252.09Z" transform="translate(-0.49 -2.01)"/><path class="cls-1" d="M231,252.45a4.7,4.7,0,0,0-2.44,1.25C229,253.22,231.44,252.75,231,252.45Z" transform="translate(-0.49 -2.01)"/><path class="cls-1" d="M212.08,267l.23-.44A1.53,1.53,0,0,0,212.08,267Z" transform="translate(-0.49 -2.01)"/><path class="cls-1" d="M186.43,269.55l-.34-.4a30.68,30.68,0,0,0,.89,5.51,7.75,7.75,0,0,0,3.25,4.78,8.71,8.71,0,0,0,5.82.81,17.62,17.62,0,0,0,5.47-1.92l-.42.32a29.92,29.92,0,0,0,11-8.91,27.79,27.79,0,0,0,3.41-6.11,19.2,19.2,0,0,0,1.59-6.76,6.49,6.49,0,0,0-.8-3.4,4.38,4.38,0,0,0-1.19-1.31,5,5,0,0,0-1.59-.73,11.61,11.61,0,0,0-6.79.67,15.49,15.49,0,0,0-9.3,9.68c.08-.28,0-.41.1-.71a12.12,12.12,0,0,0-.29,1.41c-.09.48-.18,1-.28,1.46-.13.24-.09-.31-.06-.64a11.54,11.54,0,0,0,0,7.53,20.72,20.72,0,0,0,3.1,5.66c.8.79,1.31.94,1,.39a13.35,13.35,0,0,0,9.73,3.9,14,14,0,0,0,9.58-4.64,15.3,15.3,0,0,0,4.18-9.83,14.27,14.27,0,0,0-.89-5.26,13.92,13.92,0,0,0-2.63-4.53c-.36-.57-.35-.75-.07-.74a11.37,11.37,0,0,0-3.71-2.42,11.11,11.11,0,0,0-4.33-.71c-1.43,0-2.94.42-3.49,1.14a2,2,0,0,0-.42,1.35,1.48,1.48,0,0,0,.5,1.15,3.36,3.36,0,0,0,1.59.63,11.44,11.44,0,0,0,2.24.15,25,25,0,0,0,4.67-.56,83.67,83.67,0,0,0,9.44-2.6c.4-.39-1.34.2-.21-.45-2,.53-3.8,1.26-5.56,1.88a18.72,18.72,0,0,1-5.34,1.26l.42-.31c-1.32.18-1.42.29-1.55.44a.55.55,0,0,1-.36.18,3.56,3.56,0,0,1-1.26,0c-1-.15.25-.3-.22-.3a7,7,0,0,1-3.43-.49,1,1,0,0,1-.5-.66,1.89,1.89,0,0,1,.07-1.1,1.39,1.39,0,0,1,.68-.76,4.64,4.64,0,0,1,1.49-.52,12.56,12.56,0,0,1,3.73-.08,28.23,28.23,0,0,1,3,1.58,7.49,7.49,0,0,1,2.63,3c.95,1,1.51,2.28,2,2.65a14.55,14.55,0,0,1,1,7,14.7,14.7,0,0,1-2.58,6.58,15.31,15.31,0,0,1-5.3,4.79,12.31,12.31,0,0,1-6.85,1.42,13.29,13.29,0,0,1-10.84-8.45,14.4,14.4,0,0,1,2.49-13.86,12.8,12.8,0,0,1,2.34-2.68,12.44,12.44,0,0,1,3.23-1.9,13.49,13.49,0,0,1,3.77-1,6.92,6.92,0,0,1,3.68.48,3.45,3.45,0,0,1,1.89,2.68,10.15,10.15,0,0,1-.29,3.91,31.34,31.34,0,0,1-3.29,7.81c-.07,0-.09,0-.07-.06a23.18,23.18,0,0,1-4,5.15,25.42,25.42,0,0,1-5.68,4.26,24.3,24.3,0,0,1-3.24,2,14.34,14.34,0,0,1-4.88.95,6.26,6.26,0,0,1-4.3-1.41,7.8,7.8,0,0,1-2-4.18,23.21,23.21,0,0,1-.4-5c0-1.71.16-3.43.34-5.16l.32-2.59.48-3.49a35.74,35.74,0,0,0,.37-3.63,10.76,10.76,0,0,0-.23-2.39,3.31,3.31,0,0,0-.33-.91.91.91,0,0,0-.46-.39,1,1,0,0,0-.61.09,5,5,0,0,0-1.58,1.38,27,27,0,0,0-3.21,6.08l-1.12,2.75-1,2.47c-1.27,3.31-2.49,6.63-3.72,9.94-.62,1.63-1.23,3.33-1.91,4.85l-.13.25-.05.1,0,0s-.07-.07.22.15.33.23.43.37a.63.63,0,0,0,.09.12s0,.05,0,0l0,0s.26-.11.41-.09a1.89,1.89,0,0,0,.32,0h.24a1,1,0,0,1,0-.19c0-.36.14-.79.23-1.21.19-.84.4-1.7.61-2.55.86-3.41,1.79-6.82,2.7-10.23s1.74-6.72,2.51-10.05l.28-1.26.34-1.57c.26-1.32.51-2.66.65-3.88a9.21,9.21,0,0,0,0-2.93,4.23,4.23,0,0,0-.3-.95,1.08,1.08,0,0,0-1.63-.7,3.54,3.54,0,0,0-.73.4,6.82,6.82,0,0,0-1.65,1.67,29.58,29.58,0,0,0-1.82,2.91l-.9,1.62-.62,1.14c-1.41,2.64-2.75,5.27-4.09,7.88-2.7,5.2-5.32,10.42-8.38,15.23a26.84,26.84,0,0,1-2.44,3.34,8.17,8.17,0,0,1-.65.66,1.26,1.26,0,0,1-.26.21.41.41,0,0,1-.58-.06.94.94,0,0,1-.15-.28,1.08,1.08,0,0,1-.06-.19c0-.14-.08-.3-.11-.46a20,20,0,0,1-.29-2,41.5,41.5,0,0,1-.27-4.28,44.24,44.24,0,0,1,3.51-17.07c.07.08.22-.12-.08.6q.33-.75.69-1.47c.12-.23.25-.47.37-.68l.19-.29,0-.05c0-.06.08.12-.28-.25-.12-.12-.25-.31-.32-.31a.11.11,0,0,1,0-.12c0-.06,0,0-.05,0a.36.36,0,0,0-.16,0l-.23,0a.82.82,0,0,1-.22,0H162a5.53,5.53,0,0,1-.11.66l-.17.77c-.13.52-.27,1-.41,1.55-.58,2.07-1.25,4.08-2,6.05a77.79,77.79,0,0,1-5.12,11.34l-.07-.07c-1.24,2.2-2.73,4.43-4.77,5.7a4.58,4.58,0,0,1-1.58.61,2.89,2.89,0,0,1-.83,0,3.47,3.47,0,0,1-.82-.15,6.88,6.88,0,0,1-3-2.07,21.25,21.25,0,0,1-3.95-6.76,18.08,18.08,0,0,1-1.1-7.71,23.82,23.82,0,0,1,6.51-14,26.18,26.18,0,0,1,6-4.75,24.52,24.52,0,0,1,7-2.83,6.61,6.61,0,0,1,4.32.51c1.23.78,1.46,2.44,1.25,3.94-.44,3.07-1.82,6-3.13,9-2.61,5.92-5.76,11.83-10.39,16.59a27.2,27.2,0,0,1-8,5.77c-.74.36-1.54.61-2.31.92s-1.59.43-2.39.66a35.77,35.77,0,0,1-4.92.8,20.39,20.39,0,0,1-4.94-.13,11,11,0,0,1-4.56-1.71,9.79,9.79,0,0,1-3.18-3.64,16.34,16.34,0,0,1-1.4-4.67l.19,0a31.9,31.9,0,0,1-.15-7.75,61.52,61.52,0,0,1,1.22-7.65,140.09,140.09,0,0,1,4.21-14.83c3.28-9.74,7.11-19.27,10.77-29.05,4.12-9.91,8-20.25,11.91-30.61s7.86-20.73,12.55-30.5c1.37-2.55,2.72-5.32,4.16-8.16.73-1.42,1.47-2.85,2.29-4.25a20,20,0,0,1,1.29-1.95,5.91,5.91,0,0,1,.79-.87,1.26,1.26,0,0,1,1.08-.41,1.66,1.66,0,0,1,.82,1.23,10.08,10.08,0,0,1,.25,1.57,27.33,27.33,0,0,1,0,3.26,63,63,0,0,1-.59,6.38,74.18,74.18,0,0,1-2.51,11.48c-3.63,12.43-7.49,24.53-11.59,36.57s-8.52,24-13.65,35.89c-2.68,5.34-5.37,10.66-8.18,15.91s-5.64,10.47-8.73,15.54c-1.54,2.53-3.15,5-4.87,7.42a53.76,53.76,0,0,1-5.69,6.84,17.13,17.13,0,0,1-3.57,2.77,6.79,6.79,0,0,1-2.21.8,3.61,3.61,0,0,1-2.4-.43,4.64,4.64,0,0,1-1-.74,7.78,7.78,0,0,1-.71-.92,9.45,9.45,0,0,1-1-2,21.23,21.23,0,0,1-1-4.27,32.75,32.75,0,0,1-.85-8.4,33.36,33.36,0,0,1,1.47-8.63,46.7,46.7,0,0,1,3.46-8.24c.35-.67.71-1.28,1.08-2a1.59,1.59,0,0,0,.08-.22s0-.35-.15-.45a.44.44,0,0,0-.5-.07c-.1,0-.1.06-.1.06l0,0-.06,0a3.32,3.32,0,0,0-.22.27l-.34.49-.62,1c-.81,1.29-1.57,2.61-2.3,3.95l.42-.26c-2.8,3.45-3.92,9-6.17,10.84l.18-.42c-1.59,1.76-1.5,5.31-2.74,6.23l0,.46c-1.29,2.49-.42.14-1.56,2-.36.73.27.5-.68,1.91-1.13-.2-3.1,6.13-4.26,5.72.74-1.35-1.57,1.88-.14-1.26-.58.8-2.78,4.94-2.13,4.82.29.62-.18,2.45,1.57.15l-.08-.69c.82-.65.53-.55,1-.7,1.84-3.25,2.59-3.4,4.09-5.63,0,0,0,0,0,0a21.27,21.27,0,0,1,2.69-5.15l.48-.4c.83-.54,1.26-4.15,1.4-2.77,1.75-3.36,3.69-6.94,5.72-10.59,1-1.82,2-3.67,3.11-5.49.53-.91,1.07-1.84,1.61-2.69.12-.2.29-.45.34-.51l-.28-.25-.21-.15a2.82,2.82,0,0,1-.33-.36c0-.09-.09-.09-.11-.12s0-.1,0-.07-.1,0-.33,0a2.26,2.26,0,0,1-.52-.17,2.64,2.64,0,0,0-.33-.14l-.11,0h0v0l-.15.31-.73,1.43c-.13.61-.85,2.11-1.29,3.31s-.67,2-.08,1.26a17.35,17.35,0,0,0-2.21,5,27.65,27.65,0,0,0-1,5.59c-.06-.1-.13-.21-.06-.59a10.51,10.51,0,0,0-.22,5.15,15.71,15.71,0,0,1,.2,4.91c.42.3.6,2.29,1.19,4.53a14.39,14.39,0,0,0,1.34,3.35,5.17,5.17,0,0,0,2.34,2.16c.48.54.76.75.41.76a4.2,4.2,0,0,0,1.06.39,3.92,3.92,0,0,0,1.12.12,4.47,4.47,0,0,0,1-.09,6.1,6.1,0,0,0,1-.25,11.32,11.32,0,0,0,3.08-1.69,30.92,30.92,0,0,0,4.57-4.31,81.32,81.32,0,0,0,6.74-8.85c2.56-5,7.33-11.41,8.84-16.05a102.47,102.47,0,0,0,7.55-14l-.13.53c2.73-5.62,5.92-12.75,7.08-16.91,1.53-1.35,2.42-3.91,3.7-6.3,1.23-4,4.4-11.81,6.17-17.93.71-.78,1.57-5,2.22-5.13,2.28-8.45,5-17.79,7.41-27.39,1.22-4.79,2.39-9.65,3.35-14.51.47-2.43.9-4.86,1.19-7.33.07-.62.13-1.23.18-1.86,0-.31,0-.63.05-.95l0-.48v-.74a9.08,9.08,0,0,0-.53-3,3.68,3.68,0,0,0-.67-1.07,4.63,4.63,0,0,0-1-.69,3,3,0,0,0-1.69,0,2.72,2.72,0,0,1,.37-.13,4.61,4.61,0,0,0-2.36,1.91,12.52,12.52,0,0,0-.93,1.51,2,2,0,0,0-.15.3l-.1.25-.2.49c-.51,1.31-.92,2.63-1.33,3.84-.16.19-.23.12,0-.34-1.54,3.13-3.42,5.83-4.76,9-.08-.07-.08-.07.07-.62-1.11,3.07-3.16,6-4.25,9.68l-.22.14-.75,2.33c-.16-.13-.39-.33.18-1.51-5.87,13.69-11.24,27.8-16.72,42-2.72,7.1-5.42,14.24-8,21.42s-5.14,14.42-7.34,21.77l.15-1.13q-.7,2.9-1.3,5.81c-.08,0-.06-.34,0-.62a64.08,64.08,0,0,0-2.41,11.28,41.3,41.3,0,0,0,0,11.54c-.11,0-.5-1.14-.4-.05a19.57,19.57,0,0,0,2.88,6.75,6.07,6.07,0,0,0,4.45,2.7c.23.16.33.46-.27.3a16.2,16.2,0,0,0,6,1,31.8,31.8,0,0,0,5.89-.64,26.26,26.26,0,0,0,10.91-4.6,37.52,37.52,0,0,0,8.21-8.48,67.47,67.47,0,0,0,5.78-10.12,94,94,0,0,0,3.24-9.35,14.81,14.81,0,0,0,.38-2.6,5.45,5.45,0,0,0-.53-2.76,3.91,3.91,0,0,0-2.27-1.83,7.78,7.78,0,0,0-2.73-.28,17.61,17.61,0,0,0-5.11,1.23,26.12,26.12,0,0,0-4.64,2.32,23.13,23.13,0,0,0-7.23,7.1l-.11-.17a25,25,0,0,0-4.38,12.2,18.53,18.53,0,0,0,.75,6.57,26.07,26.07,0,0,0,2.74,6.07,17.47,17.47,0,0,0,2,2.67,7.86,7.86,0,0,0,2.77,2,4.72,4.72,0,0,0,3.45.05,8.48,8.48,0,0,0,2.88-1.89,24,24,0,0,0,4-5.41,55.6,55.6,0,0,0,2.9-6,72.63,72.63,0,0,0,3.27-9.3,41.46,41.46,0,0,0,1.09-4.61,1.32,1.32,0,0,0,0-.2s0,0,0-.1S163,251,163,251a.31.31,0,0,0-.2.07l0,0a1.57,1.57,0,0,0-.21.28c-.12.18-.22.36-.33.54-.2.37-.39.75-.58,1.14-.37.77-.73,1.59-1.08,2.45l-.29.08c-1.86,6-3.37,12.43-2.95,19.11,0,.83.09,1.66.21,2.5a8.06,8.06,0,0,0,.26,1.32,3.8,3.8,0,0,0,.63,1.35,1.7,1.7,0,0,0,1.25.71,2.6,2.6,0,0,0,1.42-.39,8.71,8.71,0,0,0,2.05-1.85,38.82,38.82,0,0,0,5.1-8.5l-.15,1c.57-2,3.88-6.84,2.74-6.57l1.28-1.91a59.89,59.89,0,0,1,4.32-9.29l1.27-2.22c.45-.79.91-1.54,1.35-2.26s.89-1.43,1.37-2.11c.24-.34.48-.69.76-1a5.07,5.07,0,0,1,.46-.47c.16-.13.38-.3.61-.21a.76.76,0,0,1,.28.55,3.38,3.38,0,0,1,.07.63c0,.43,0,.85,0,1.29,0,.86-.15,1.76-.25,2.76a3.8,3.8,0,0,0-.13-.49c-.12,1.22-.37,2.8-.65,4.23a30.91,30.91,0,0,1-.95,3.78c.05-.33,0-.19.06-.87-1.43,4.28-2.59,8.87-3.67,13.56-.53,2.35-1.07,4.71-1.51,7.09q-.09.45-.15.9c0,.16,0,.31,0,.48a.39.39,0,0,0,0,.15s0,0,0,.13a.2.2,0,0,0,.24.09c.22-.11.19-.18.25-.25.3-.57.5-1.12.73-1.68l1.25-3.36v1.15c.6-2.23,1.7-5.28,2.93-8.48l3.58-9.08,0,.51c.27-.84.59-1.79,1-2.83l0,.86a15.43,15.43,0,0,1,1.08-1.88,2.86,2.86,0,0,1,.36-.42c.13-.12.32-.24.49-.15s.24.63.27.95c0,1.35-.2,2.71-.35,4.19-.14,1.33-.38,3.45-.52,5.29A54.3,54.3,0,0,0,186.43,269.55Z" transform="translate(-0.49 -2.01)"/><path class="cls-1" d="M196.91,263.3l0-.07C197,263,196.94,263.1,196.91,263.3Z" transform="translate(-0.49 -2.01)"/><path class="cls-1" d="M92.76,269.13l-.53.81A4.5,4.5,0,0,0,92.76,269.13Z" transform="translate(-0.49 -2.01)"/><path class="cls-2" d="M109.74,231.6a.64.64,0,0,0,.3.82c.36.08,1-.82.8-1.11s-.55-.17-.83,0A.67.67,0,0,0,109.74,231.6Z" transform="translate(-0.49 -2.01)"/><polygon class="cls-1" points="109.73 229.79 109.73 229.79 109.73 229.79 109.73 229.79"/><polygon class="cls-1" points="109.73 229.79 109.73 229.79 109.73 229.79 109.73 229.79"/><path class="cls-1" d="M110.22,231.8Z" transform="translate(-0.49 -2.01)"/><path class="cls-1" d="M110.49,232.17Z" transform="translate(-0.49 -2.01)"/><path class="cls-1" d="M110.36,231l0-.33c0,.59-.09,0-.1.27l0-.12c-.15-.1-.1.47,0,.72l-.07-.16.12.28-.08-.17c-.27-.49.13.32-.08,0l.23.41,0,.1s.06.1,0,0a.36.36,0,0,0-.08-.09h0a.27.27,0,0,0-.07-.06h0l0,0,0,0h0l0,.07.14.2.18.3c0,.09,0,0,0,0l-.31-.51h0v0l0,.07s0,.06,0,0,0,0,0,.07l0,.06h0c0,.07,0-.17,0,0l-.08-.4a3.78,3.78,0,0,1,.08.39v-.09a1.48,1.48,0,0,1,0-.34.62.62,0,0,1,.15-.29,1.36,1.36,0,0,1-.26,0h0l-.29,0h0l-.08,0,.09,0s0,0,0,0,0,0,.32.24c-.11,0-.08.14,0,.37l-.14-.12c.24.34-.53-.3-.34-.08-.16-.15,0,.06.12.3s.11.48,0,.22c-.13-.45,0-.19-.08.07s-.29.46-.11,0a2.87,2.87,0,0,1,.17-.35l0,0s.07-.06.1-.1h0l-.07.05-.22.13a4,4,0,0,1-.59.22c.2-.17,0-.14-.15-.19s-.24-.15.28-.26c-.34,0-.13-.06.14-.08s.59,0,.5,0l-.23,0c.69.12-1-.22.06,0l0,0c.52.13-1.22-.33-.6-.18l-.26-.08c-.06,0,.29.08.4.1s-.46-.14-.31-.11a6.88,6.88,0,0,1,.92.3h0l.23.1-.05,0-.09,0-.18-.08-.35-.15c-.22-.09-.42-.18-.62-.25l.36.16-.46-.18c-.06,0-.61-.18-.85-.22l0,0c.44.18.16.12.09.12l-.21-.05c-.46-.1.86.3.09.08a.45.45,0,0,1,.14.38c.29,0,0,.08.55.09-.67,0-.84.08-.81.11s-.14,0-.11,0c-.86.1.8,0-.25.16.74,0-.23.14.65.07l-.45.06c0,.11-.24.28-.25.38.65-.1-.23.29.65.06-.17.1-.48.34-.12.26l-.1,0c.08.06.18.15.7-.1a2.47,2.47,0,0,0-.78.59c.37-.15.36,0,.71-.12-.29.27.18-.05-.25.34.54-.24.74-.31.89-.15s.33.57.7,1v0a4.74,4.74,0,0,0,.13-1.44.43.43,0,0,1,0,.15c0-.12.17.43.22.31a.72.72,0,0,1,0,.19c0-.26.29.4.19,0l.06.14,0-.22c.07.18.17.45.13.4.31,0,.4-.33.39-.58s-.08-.49,0-.52l.12.13-.21-.25.14.13c.28.18-.09-.22,0-.2s.21.18.3.24c-.39-.35.57.36-.27-.31l.3.23c-.22-.31-.16-.36,0-.37-.81-.55,0-.21-.66-.61l.18.08c-.6-.34.11-.15,0-.33.08,0-.14-.1-.15-.14h.24c-.46-.06-.26-.06-.07-.17s.27-.37-.2-.13l.28-.18c-.43.28.06-.22-.58.38l.18-.19c-.21.2-.28.3-.27.27l.07-.1c.09-.16.15-.4,0-.06l.08-.19c-.08.14-.12.27-.07.08l0-.14c.16-.81-.16.05-.16,0l0-.39c-.07.45-.09,0-.13.23v-.18l0,.26v-.37C110.42,230.59,110.39,230.91,110.36,231Z" transform="translate(-0.49 -2.01)"/><path class="cls-1" d="M110.16,231.45h0S110.15,231.43,110.16,231.45Z" transform="translate(-0.49 -2.01)"/><path class="cls-1" d="M108.11,231.11h.08C108.12,231.09,108.13,231.11,108.11,231.11Z" transform="translate(-0.49 -2.01)"/></g></g></svg>