<svg xmlns="http://www.w3.org/2000/svg" viewBox="0 0 264.49 309.85"><defs><style>.cls-1{fill:#fff;}.cls-2{fill:#fc0000;}</style></defs><g id="Calque_2" data-name="Calque 2"><g id="Calque_2-2" data-name="Calque 2"><polygon class="cls-1" points="84.56 308.34 84.8 307.75 84.83 306.1 84.56 308.34"/><path class="cls-1" d="M86.56,299.76c-.12.29-.18.12-.3.42l-.41,6.31C86.91,303.86,85.85,301.49,86.56,299.76Z" transform="translate(-0.5 -1.99)"/><path class="cls-1" d="M87,298a9.4,9.4,0,0,0,.47-4C87.63,294.89,86.47,298.39,87,298Z" transform="translate(-0.5 -1.99)"/><path class="cls-1" d="M92.12,170.89l.24-.72A3.37,3.37,0,0,0,92.12,170.89Z" transform="translate(-0.5 -1.99)"/><path class="cls-1" d="M75.09,223.93l.13.65c2.76-10,7.12-20.92,10.51-31.37l-.14.74c3.93-11,7.68-21.74,11.6-32.32,2-5.28,4-10.54,6.13-15.76,1.09-2.61,2.22-5.21,3.48-7.76.63-1.28,1.29-2.55,2-3.76a13.46,13.46,0,0,1,1.28-1.8,4.86,4.86,0,0,1,.8-.77,1.28,1.28,0,0,1,1-.31,1.83,1.83,0,0,1,.94,1.22,10.33,10.33,0,0,1,.35,1.62,30,30,0,0,1,.19,3.25c0,2.17-.08,4.36-.23,6.56,0-.44-.09-.59-.09-1a33.28,33.28,0,0,1-.06,4.33c-.11.38-.11-.43-.11-.92-1,5.77-1.67,17.09-2.65,20.65-.18,1.63-.06,2.39.25,1.51-3.08,21.44-7.16,44.25-10.84,66-.27,1-.45,1.18-.59.86q-1,7-2.24,14.12-.63,3.56-1.28,7.12l-1.44,7.12c-2,9.51-4.09,19.05-6.12,28.48.08.77.64-1.88.49,0,1.56-6,1.76-11.25,3.32-16.67l.07.75c1-4-.39-.92.77-5,.52-1.6.19.47.37-.29.87-4.26,1.76-8.62,2.63-12.91s1.55-8.56,2.06-12.63c.87-1.89,1.78-9.18,2.84-12.25.23-2.25.69-4.46.53-5.36q4.4-22.41,8.07-45.39c1.21-7.65,2.36-15.34,3.35-23.07.5-3.87,1-7.74,1.33-11.64a100.57,100.57,0,0,0,.59-11.83l-.15-1.24-.05-.39c0-.16,0-.31-.07-.46,0-.3-.14-.58-.2-.87a3.85,3.85,0,0,0-.27-.81,3,3,0,0,0-.36-.71,3.09,3.09,0,0,0-.48-.59,3.37,3.37,0,0,0-.7-.4c-1.09-.15-1.93.57-2.72,1.47a8.11,8.11,0,0,0-.56.72c-.17.22-.37.54-.47.69-.24.38-.48.77-.7,1.15-.89,1.55-1.7,3.14-2.49,4.77-1.58,3.25-3.1,6.63-4.59,10.09-3,6.91-5.88,14.13-8.42,21.44-.07.1-.1.06-.09-.05-1.73,5.38-4.41,13.16-6.75,19.49l-1.51,5.52c-7.06,19-13.62,38.43-20.15,57.94-3.27,9.76-6.52,19.54-9.86,29.28-1.68,4.87-3.37,9.74-5.19,14.53-.46,1.19-.93,2.39-1.44,3.52-.13.28-.26.56-.39.81a2.7,2.7,0,0,1-.19.32.14.14,0,0,1,0,.05h0l.07.07.17.16a1,1,0,0,1,.38.43.08.08,0,0,1,0,.09c0,.06,0-.05,0,0s.1-.05.19-.08a.88.88,0,0,1,.27-.06c.08,0,.28-.05.41-.06s0,0,.05,0a1,1,0,0,0,0-.11c0-.12,0-.26,0-.4s.09-.59.15-.89c.49-2.46,1.15-5,1.79-7.44,6.12-22.57,11.56-43.87,16.65-65.06S76.65,186.61,81,164.22c.08.08.21-.27,0,.88,1.33-6.44,2.71-12.57,4.05-18.61s2.68-12,3.86-18.07l.08.06c1.82-9.66,3.79-19.54,5.83-29.46l3-14.9.73-3.73.38-2,.43-2.48a28.66,28.66,0,0,0,.48-4.42,13.61,13.61,0,0,0-.08-1.62,3.6,3.6,0,0,0-.13-.73c-.08-.21-.13-.51-.46-.65a1.3,1.3,0,0,0-.84.38,4.86,4.86,0,0,0-.6.6,13.94,13.94,0,0,0-1.16,1.57,38.6,38.6,0,0,0-2.38,4.62c-.83,1.84-1.27,2.91-1.83,4.26l-1.57,3.88c-2,5.17-3.92,10.31-5.67,15.36C78.7,116,72.23,134.13,65.75,152.5s-12.91,37-19.12,55.08l-.15-.15c-4.87,14.48-10,28.6-15.19,42.67s-10.4,28.15-15.88,42.35c-.76,1.8-1.52,3.61-2.33,5.4-.4.89-.81,1.78-1.25,2.65-.22.43-.44.86-.68,1.26-.12.21-.25.4-.37.57a1,1,0,0,1-.18.21l0,0h0l0,.07a.77.77,0,0,1,.07.16l0,.08v0a.33.33,0,0,1,0,.06c0,.14,0,0,.1,0a1.17,1.17,0,0,1,.25-.12c.08,0,0,0,0,0a1.25,1.25,0,0,1,0-.24,5.2,5.2,0,0,1,0-.67c0-.46.11-.94.19-1.42.16-1,.35-1.94.55-2.91.41-1.94.87-3.88,1.33-5.82,1.89-7.77,3.92-15.58,6-23.38,4.12-15.62,8.37-31.24,13-46.36,6.25-18.56,11.29-43.82,17-61.3,5.64-18,10.5-36,14.78-54.08s8-36.33,10.91-55a236.83,236.83,0,0,0,3.69-25.77,89,89,0,0,0,.22-12.95,28.72,28.72,0,0,0-1-6.29,10.13,10.13,0,0,0-1.29-2.81,4.08,4.08,0,0,0-2.28-1.7,4.85,4.85,0,0,0-2.87.28,13.37,13.37,0,0,0-2.71,1.5A40.8,40.8,0,0,0,63.72,8c-3.06,3-5.94,6.14-8.82,9.28s-5.66,6.36-8.47,9.54c-1.43,1.56-2.7,3.25-4,4.89s-2.69,3.25-4,4.94c-2.1,3.4-4.53,6.69-6.7,10.26-1.1,1.77-2.31,3.5-3.4,5.32L25,57.73A161.24,161.24,0,0,0,13.52,81.47c.14-.17.3-.33.45-.5a33.51,33.51,0,0,0-1.87,4.62c-.54,1.6-1,3.24-1.42,4.83A34.67,34.67,0,0,1,8.07,98.2l.15-.66a17.19,17.19,0,0,0-1.17,5.34c-.15,1.82-.27,3.46-.83,4.38l.12.59c-.88,4-.42.4-1.22,3.45-.23,1.16.37.54-.33,2.92-.61.14-1,2.62-1.46,5s-.78,4.85-1.42,4.89c.38-2.22-1.06,3.39-.46-1.63C1,123.92.09,130.76.69,130.21c.47.66.56,3.37,1.57-.69L2,128.64c.6-1.33.36-1,.73-1.48.92-5.34,1.61-6,2.61-9.71,0,0,0,.07,0,0,0-2.71,1.15-6.22,1.66-8.25l.42-.76c.77-1.12.65-6.19,1-4.39A191.64,191.64,0,0,1,20.28,70.27a35.94,35.94,0,0,1,2-4.6c.79-1.62,1.3-2.77.43-1.7,1.9-2.5,6.45-10.41,8.23-13.29a1.32,1.32,0,0,1-.33.73,28,28,0,0,0,3.82-6,20,20,0,0,1,4-5.52c-.15-1.3,6.78-8.86,8.35-12.07.62-.47.9-.57.82-.28,1.81-2.1,3.64-4.26,5.55-6.39S57,16.9,59,14.86s3.86-4,5.76-5.78a34.91,34.91,0,0,1,5.55-4.41,7,7,0,0,1,2.23-1.15,2.22,2.22,0,0,1,1.86.18,4.27,4.27,0,0,1,1.46,1.94,13.8,13.8,0,0,1,.88,3c.79,4.35.63,8.93,1,12.36-.41,5.67-1.86,14.8-2.79,22.76V43c-1.33,8.93-3.48,20-4.21,26.23-1.39,2.44-2,6.3-3.16,10.07-.9,6-3.78,17.85-5.64,26.91-.72,1.27-1.66,7.43-2.34,7.75-5.19,25.38-14,56.18-22.3,82.56l.07-.4c-.67,3.54-1.11,7.71-1.71,11.33-.15.34-.23.27,0-.47-1.27,4.89-3.11,9.28-4.39,14.16-.08-.06-.08-.06.06-.88-1,4.63-3.13,9.29-4.23,14.78l-.23.26L26,238.77c-.16-.14-.4-.35.18-2.16q-4.53,15.62-8.9,31.54-2.17,8-4.26,16c-.69,2.68-1.36,5.36-2,8.07s-1.26,5.41-1.7,8.25c-.05.36-.1.73-.14,1.11a7.75,7.75,0,0,0,0,1.3,3,3,0,0,0,.11.54s.06.14.09.21a2,2,0,0,0,.15.26,1.33,1.33,0,0,0,.31.32,1.53,1.53,0,0,0,.52.27,1.74,1.74,0,0,0,1-.07,2.22,2.22,0,0,0,.39-.23,2.13,2.13,0,0,0,.4-.37,7.31,7.31,0,0,0,.73-1.07,41.58,41.58,0,0,0,1.87-3.88c1.11-2.58,2.13-5.17,3.14-7.77,2-5.21,3.92-10.44,5.82-15.67L35,243.94l-.38,1.6,2.58-8.24c.08.07,0,.48-.11.88,4-10.26,7.25-21.2,10.87-31.29.07.08-.29,1.67.31.29,2.13-7.66,4.86-11.8,5.15-15.9.17-.34.48-.49.3.3,7-20.94,14.5-42.32,22.2-63.17,2.68-8.87,6-18.09,9.51-27.34L90.7,87.21c1.78-4.55,3.63-9.33,5.26-13.12l0,.51c.31-.7.66-1.43,1-2.16.19-.37.4-.73.63-1.09a6.54,6.54,0,0,1,.4-.52c.14-.15.3-.34.52-.32s.3.48.34.74a6.46,6.46,0,0,1,0,.88c0,.59-.09,1.2-.16,1.82-.16,1.24-.36,2.53-.59,3.85l-.77,4.26c-.28,1.45-.57,2.9-.85,4.36-1.16,5.81-2.42,11.66-3.68,17.53-2.51,11.74-5.15,23.54-7.6,35.25-2.34,10.46-3.65,17.59-6,28.1l-.3.21c-3,17.91-9.18,37-12.53,55.62l0-1.34c-.17,3-2.81,11.09-1.69,10.2l-1,3.19c-1.87,12.77-6,22.6-9.14,38.05l0-1.06c-.87,4.1-2,8.86-2.94,11.81.1-.47,0-.27.18-1.25q-1.55,4.68-2.89,9.67c-.44,1.65-.87,3.33-1.26,5a40.85,40.85,0,0,0-1,5.24,3.1,3.1,0,0,0,0,.41s0,.11,0,.17l0,.08a.52.52,0,0,0,.6.27.51.51,0,0,0,.15-.07l.07-.06a2.14,2.14,0,0,0,.47-.68c.21-.41.39-.82.56-1.23.34-.82.65-1.65,1-2.48.6-1.66,1.17-3.33,1.74-5l3.36-9.93-.14,1.61c1.75-6.47,6.06-18,8.66-26.36V260l1.17-4.3h.38C68.44,244.83,71.55,234.52,75.09,223.93Z" transform="translate(-0.5 -1.99)"/><path class="cls-1" d="M112.93,146.49l0-.12C113,146,112.94,146.2,112.93,146.49Z" transform="translate(-0.5 -1.99)"/><path class="cls-1" d="M5.67,116.1l-.34,1.35A8.54,8.54,0,0,0,5.67,116.1Z" transform="translate(-0.5 -1.99)"/><polygon class="cls-1" points="264.49 274.39 264.01 274.47 263.01 275.23 264.49 274.39"/><path class="cls-1" d="M257.79,280c.24,0,.16.1.41.07q2.06-1.26,4.06-2.56C260.13,277.85,259.21,279.84,257.79,280Z" transform="translate(-0.5 -1.99)"/><path class="cls-1" d="M256.45,280.43a5.73,5.73,0,0,0-2.72,1.36C254.23,281.28,257,280.72,256.45,280.43Z" transform="translate(-0.5 -1.99)"/><path class="cls-1" d="M235.55,296.5c.08-.14.19-.33.26-.48A1.65,1.65,0,0,0,235.55,296.5Z" transform="translate(-0.5 -1.99)"/><path class="cls-1" d="M207,299.29l-.34-.44a32.07,32.07,0,0,0,1,6.11,8.64,8.64,0,0,0,3.58,5.3,9.58,9.58,0,0,0,6.45.89A20,20,0,0,0,223.7,309l-.46.36a33.2,33.2,0,0,0,12.2-9.9,30.53,30.53,0,0,0,3.79-6.78A21.72,21.72,0,0,0,241,285.2a7.31,7.31,0,0,0-.88-3.77,5.05,5.05,0,0,0-1.31-1.45,5.7,5.7,0,0,0-1.77-.82,13,13,0,0,0-7.54.74,17.23,17.23,0,0,0-10.36,10.74c.09-.31,0-.45.13-.78a11.91,11.91,0,0,0-.34,1.56l-.33,1.62c-.13.27-.08-.34,0-.7a13.15,13.15,0,0,0,0,8.37A22.08,22.08,0,0,0,222,307c.89.89,1.45,1.07,1.08.47a14.88,14.88,0,0,0,10.86,4.37,15.6,15.6,0,0,0,10.71-5.17,17.14,17.14,0,0,0,4.69-11,16.21,16.21,0,0,0-1-5.89,15.67,15.67,0,0,0-2.93-5.08c-.4-.63-.41-.82-.12-.8a11.93,11.93,0,0,0-9-3.56c-1.61,0-3.32.46-4,1.31a2.37,2.37,0,0,0-.5,1.61,1.82,1.82,0,0,0,.6,1.4,4,4,0,0,0,1.85.73,12.67,12.67,0,0,0,2.51.16,26.64,26.64,0,0,0,5.22-.63,90.85,90.85,0,0,0,10.5-2.9c.45-.4-1.48.24-.21-.45-2.26.61-4.24,1.4-6.19,2.08a22.1,22.1,0,0,1-6,1.4l.48-.31c-1.48.2-1.59.31-1.74.46a.66.66,0,0,1-.4.19,4.68,4.68,0,0,1-1.41,0c-1.15-.15.28-.3-.25-.3a7.84,7.84,0,0,1-3.92-.58,1.34,1.34,0,0,1-.65-.85,2.44,2.44,0,0,1,.09-1.36,1.79,1.79,0,0,1,.85-.93,5.51,5.51,0,0,1,1.72-.6,14.06,14.06,0,0,1,4.2-.05,26.29,26.29,0,0,1,3.43,1.76,8.78,8.78,0,0,1,3,3.33c1,1.14,1.68,2.58,2.18,3a16.29,16.29,0,0,1,1.07,7.83,16.63,16.63,0,0,1-2.9,7.39,17.25,17.25,0,0,1-5.94,5.36,13.83,13.83,0,0,1-7.71,1.59A14.91,14.91,0,0,1,220,301.57c-2-5.09-.68-11.22,2.78-15.53a14.61,14.61,0,0,1,2.65-3,14,14,0,0,1,3.61-2.11,15.33,15.33,0,0,1,4.22-1.08,7.83,7.83,0,0,1,4.14.54,3.9,3.9,0,0,1,2.17,3,11.49,11.49,0,0,1-.31,4.4,34.22,34.22,0,0,1-3.68,8.71c-.07.06-.09,0-.07-.06a25,25,0,0,1-4.42,5.74,28.89,28.89,0,0,1-6.34,4.74,27.18,27.18,0,0,1-3.63,2.2,17,17,0,0,1-5.44,1.08,6.78,6.78,0,0,1-4.84-1.6,8.74,8.74,0,0,1-2.29-4.68,26,26,0,0,1-.45-5.6c0-1.91.17-3.82.38-5.74.1-1,.22-1.92.34-2.88l.42-3c.2-1.43.42-2.9.53-4.24a10.3,10.3,0,0,0-.15-3.11,3.65,3.65,0,0,0-.38-1.08,1.08,1.08,0,0,0-.51-.44,1,1,0,0,0-.69.1,5.42,5.42,0,0,0-1.87,1.7,20.09,20.09,0,0,0-1.89,3.32c-.31.64-.6,1.31-.9,2l-.65,1.52c-.76,1.82-1.48,3.65-2.19,5.49-1.41,3.67-2.76,7.36-4.13,11-.69,1.82-1.37,3.7-2.13,5.4l-.14.29-.07.12,0,.05h0l.09.07c.11.07.24.2.31.24a.82.82,0,0,1,.2.17c.06.08.1.16.12.16s0,.08,0,0a1.55,1.55,0,0,1,.43-.11c.11,0,.14,0,.33,0l.21,0h0a.45.45,0,0,1,0-.08l0-.14c.05-.41.16-.9.26-1.36.2-.94.44-1.89.67-2.83,1-3.79,2-7.58,3-11.37s1.93-7.47,2.78-11.18l.62-2.77.32-1.64c.14-.74.27-1.48.37-2.2a13,13,0,0,0,.16-3.74,4.44,4.44,0,0,0-.33-1.19,1.23,1.23,0,0,0-1.86-.81,4,4,0,0,0-.89.53,9.16,9.16,0,0,0-2,2.36c-.69,1-1.41,2.3-2,3.44l-1.19,2.19c-1.56,2.93-3,5.85-4.54,8.75-3,5.78-5.91,11.58-9.31,16.94a31.15,31.15,0,0,1-2.73,3.73c-.25.27-.5.53-.74.75a3.14,3.14,0,0,1-.34.29l-.15.1a.45.45,0,0,1-.64-.06.9.9,0,0,1-.17-.32,7.87,7.87,0,0,1-.26-1c-.14-.72-.24-1.5-.32-2.29-.17-1.62-.29-3.17-.3-4.77a49.08,49.08,0,0,1,4-19c.06.08.22-.15-.11.66.24-.56.5-1.11.77-1.64.14-.26.28-.52.42-.76s.14-.24.2-.34l0-.06s0,0,0,0h0s-.13-.11-.19-.16l-.2-.22-.09-.12s-.05,0-.08,0a.17.17,0,0,1-.07-.13s0-.07,0-.05a.07.07,0,0,1,0,.05s-.25,0-.41,0a1,1,0,0,1-.24,0,.73.73,0,0,0-.23,0c0,.12-.07.47-.13.74l-.19.86c-.14.58-.3,1.15-.46,1.73-.64,2.29-1.38,4.53-2.18,6.72a84.94,84.94,0,0,1-5.7,12.62l-.07-.07a27.14,27.14,0,0,1-2.33,3.55,11.76,11.76,0,0,1-3,2.8,5.37,5.37,0,0,1-1.8.69,3.21,3.21,0,0,1-.93,0,3.8,3.8,0,0,1-.93-.17,7.89,7.89,0,0,1-3.34-2.32,24.08,24.08,0,0,1-4.4-7.54,20.18,20.18,0,0,1-1.23-8.6,26.56,26.56,0,0,1,7.25-15.54,29.32,29.32,0,0,1,6.73-5.29,27.64,27.64,0,0,1,7.8-3.12,7.49,7.49,0,0,1,4.83.56c1.38.88,1.63,2.75,1.4,4.41a22.51,22.51,0,0,1-1.38,5.06c-.62,1.66-1.35,3.3-2.09,4.94-2.9,6.58-6.4,13.16-11.56,18.45a30.17,30.17,0,0,1-8.9,6.41c-.83.4-1.72.68-2.57,1s-1.78.48-2.66.73a39.21,39.21,0,0,1-5.47.89,22.48,22.48,0,0,1-5.5-.14,12.34,12.34,0,0,1-5.07-1.9,10.91,10.91,0,0,1-3.54-4.06,18.56,18.56,0,0,1-1.55-5.2l.19,0a35.43,35.43,0,0,1-.15-8.61,67.43,67.43,0,0,1,1.35-8.5A155,155,0,0,1,137,263.69c3.63-10.82,7.85-21.42,11.94-32.28,4.56-11,8.91-22.49,13.26-34s8.79-23,14-33.88c1.5-2.84,3-5.93,4.6-9.08.8-1.57,1.63-3.17,2.55-4.72a22.31,22.31,0,0,1,1.47-2.21,6.49,6.49,0,0,1,.87-.95,1.39,1.39,0,0,1,1.2-.45,1.86,1.86,0,0,1,.9,1.39,10,10,0,0,1,.27,1.76,29.18,29.18,0,0,1,0,3.62,71,71,0,0,1-.67,7.08,86.46,86.46,0,0,1-2.77,12.75c-3.95,13.83-8.23,27.28-12.8,40.66S162.3,240,156.56,253.21c-3,5.94-5.95,11.85-9.07,17.69s-6.29,11.62-9.72,17.24c-1.72,2.81-3.51,5.57-5.42,8.25A59.27,59.27,0,0,1,126,304a18.84,18.84,0,0,1-4,3.07,7.43,7.43,0,0,1-2.44.89,4,4,0,0,1-2.63-.46,2.4,2.4,0,0,1-.56-.38c-.16-.15-.35-.28-.5-.43a9.2,9.2,0,0,1-.78-1,11,11,0,0,1-1.09-2.24,24.68,24.68,0,0,1-1.14-4.73,36.87,36.87,0,0,1-.93-9.33,37.38,37.38,0,0,1,1.6-9.6,51,51,0,0,1,3.8-9.16c.39-.76.79-1.44,1.2-2.25a1.62,1.62,0,0,0,.08-.24.53.53,0,0,0-.15-.45.44.44,0,0,0-.5-.07l-.11.06,0,0-.06,0-.24.3-.37.54-.69,1.08q-1.33,2.16-2.56,4.38l.45-.3c-3,3.87-4.45,9.92-6.85,12.05l.21-.47c-1.72,2-1.8,5.84-3.11,6.9l0,.49c-1.44,2.76-.44.18-1.69,2.23-.41.81.25.53-.79,2.11-1.14-.16-3.47,6.8-4.64,6.4.82-1.49-1.69,2.11-.08-1.36-.63.89-3.09,5.5-2.41,5.34.27.65-.3,2.67,1.6.09l0-.75c.86-.75.56-.62,1-.81,2-3.61,2.81-3.81,4.46-6.3,0,0,0,0,0,0a26.1,26.1,0,0,1,3-5.71l.51-.45c.88-.63,1.48-4.57,1.57-3.08,2-3.73,4.11-7.7,6.36-11.76,1.13-2,2.29-4.07,3.46-6.1.59-1,1.19-2,1.8-3a5.61,5.61,0,0,1,.39-.58l0,0-.17-.15-.22-.17a2,2,0,0,1-.37-.39c-.06-.1-.1-.1-.12-.13s0-.12,0-.07-.1,0-.36-.06a2.3,2.3,0,0,1-.58-.18,2.37,2.37,0,0,0-.34-.15h0l0,0-.17.35-.8,1.59c-.17.67-1,2.34-1.45,3.66s-.76,2.27-.13,1.39a20.33,20.33,0,0,0-2.38,5.58,31.82,31.82,0,0,0-1.14,6.19.9.9,0,0,1-.05-.65,12.56,12.56,0,0,0-.24,5.69,20.43,20.43,0,0,1,.25,5.43c.41.34.63,2.54,1.29,5a15.52,15.52,0,0,0,1.46,3.68A5.69,5.69,0,0,0,116.1,308c.53.58.83.79.46.79a4.14,4.14,0,0,0,1.13.41,4.18,4.18,0,0,0,1.2.14,4.65,4.65,0,0,0,1.14-.11,5.46,5.46,0,0,0,1-.27,12.1,12.1,0,0,0,3.35-1.85,33.75,33.75,0,0,0,5-4.76,90.25,90.25,0,0,0,7.46-9.82c2.9-5.53,8.11-12.68,9.87-17.79a120.38,120.38,0,0,0,8.37-15.57l-.17.58c3-6.23,6.58-14.15,7.93-18.75,1.61-1.53,2.62-4.37,4-7,1.41-4.42,4.91-13.09,6.91-19.88.75-.88,1.76-5.56,2.42-5.71,2.6-9.36,5.59-19.74,8.3-30.39,1.36-5.33,2.64-10.72,3.7-16.12.52-2.7,1-5.4,1.3-8.13a38,38,0,0,0,.26-4.17v-.61c0-.3,0-.6-.08-.9l-.13-.89-.23-.83a4.58,4.58,0,0,0-.73-1.33,4,4,0,0,0-1.18-.83,2.94,2.94,0,0,0-2,.07,2.44,2.44,0,0,1,.44-.19,5.68,5.68,0,0,0-2.69,2.4l-.27.42-.13.2-.08.15-.26.53c-.17.36-.32.72-.47,1.08-.59,1.44-1.07,2.88-1.54,4.22-.17.22-.25.14,0-.37-1.71,3.47-3.75,6.49-5.25,10.05-.07-.07-.07-.07.1-.67-1.26,3.39-3.46,6.64-4.71,10.74l-.24.16-.85,2.58c-.16-.13-.38-.34.24-1.65-6.51,15.21-12.5,30.87-18.6,46.62-3,7.88-6.05,15.81-9,23.78s-5.71,16-8.15,24.17l.19-1.25c-.53,2.14-1,4.29-1.48,6.45-.09-.06,0-.37,0-.69a73.53,73.53,0,0,0-2.68,12.52,45.29,45.29,0,0,0,0,12.79c-.11,0-.52-1.27-.41-.07a20.74,20.74,0,0,0,3.18,7.43,6.91,6.91,0,0,0,4.87,3c.25.16.37.48-.29.29a17.86,17.86,0,0,0,6.65,1.12,35.17,35.17,0,0,0,6.52-.7,28.94,28.94,0,0,0,12.08-5.09,41.73,41.73,0,0,0,9.09-9.39,74,74,0,0,0,6.39-11.23,96.1,96.1,0,0,0,3.64-10.36,14.94,14.94,0,0,0,.43-2.87,6.08,6.08,0,0,0-.58-3,4.23,4.23,0,0,0-2.49-2,8.41,8.41,0,0,0-3-.31,19.68,19.68,0,0,0-5.66,1.35,30.5,30.5,0,0,0-5.14,2.58,25.87,25.87,0,0,0-8,7.85l-.11-.18a27.55,27.55,0,0,0-4.88,13.54,20.65,20.65,0,0,0,.83,7.28,28.78,28.78,0,0,0,3.05,6.74,18.46,18.46,0,0,0,2.27,3,8.59,8.59,0,0,0,3.08,2.19,5.22,5.22,0,0,0,3.81,0,9.34,9.34,0,0,0,3.17-2.1,26.35,26.35,0,0,0,4.46-6,60.43,60.43,0,0,0,3.22-6.69,81.78,81.78,0,0,0,3.64-10.33,45.13,45.13,0,0,0,1.21-5.12.69.69,0,0,0,0-.21s0,0-.05-.14a.2.2,0,0,0-.21-.11c-.22.06-.18.1-.21.12a1.55,1.55,0,0,0-.23.31c-.13.19-.25.4-.36.6-.23.41-.44.83-.65,1.26-.41.86-.81,1.77-1.19,2.72l-.31.1c-2.11,6.61-3.77,13.8-3.28,21.21,0,.92.11,1.84.24,2.78a10.2,10.2,0,0,0,.28,1.4,4.41,4.41,0,0,0,.68,1.5,1.86,1.86,0,0,0,1.4.79,2.84,2.84,0,0,0,1.59-.47,6.65,6.65,0,0,0,1.22-1,13.59,13.59,0,0,0,1-1,44.55,44.55,0,0,0,5.68-9.42l-.19,1c.68-2.18,4.29-7.6,3.11-7.25l1.4-2.14a74.94,74.94,0,0,1,4.82-10.3c.92-1.65,1.87-3.29,2.9-5,.5-.83,1-1.63,1.54-2.41a13,13,0,0,1,.85-1.14,4.26,4.26,0,0,1,.51-.53c.18-.15.42-.34.67-.24a.83.83,0,0,1,.33.61,5.51,5.51,0,0,1,.06.71,14.44,14.44,0,0,1-.05,1.46c-.06,1-.18,2-.31,3.17,0-.25-.06-.48-.1-.68-.16,1.42-.44,3.22-.76,4.79a36.05,36.05,0,0,1-1,4.19c.06-.36,0-.21.08-1-1.54,4.76-2.84,9.86-4,15.07-.6,2.61-1.2,5.23-1.7,7.87-.06.34-.12.67-.16,1a4.15,4.15,0,0,0,0,.53.53.53,0,0,0,0,.16s.11.32.32.21a.64.64,0,0,0,.25-.27,17.81,17.81,0,0,0,.8-1.87l1.4-3.72-.05,1.26c.68-2.47,1.91-5.86,3.27-9.41l2.1-5.36,2-4.94c0,.15,0,.29,0,.42.28-.86.62-1.84,1.06-2.93l.1.66a15.64,15.64,0,0,1,1.2-2.09,2.87,2.87,0,0,1,.4-.46c.14-.13.36-.26.54-.16.3.28.26.71.29,1.08,0,1.52-.24,3.06-.41,4.74A91.08,91.08,0,0,0,207,299.29Z" transform="translate(-0.5 -1.99)"/><path class="cls-1" d="M218.57,292.34a.47.47,0,0,1,0-.09C218.65,292,218.6,292.12,218.57,292.34Z" transform="translate(-0.5 -1.99)"/><path class="cls-1" d="M102.72,298.73l-.58.9A5.44,5.44,0,0,0,102.72,298.73Z" transform="translate(-0.5 -1.99)"/><path class="cls-2" d="M121.74,257.12c-.15.36.08.87.34.92s1.09-.91.89-1.24-.61-.19-.92,0A.68.68,0,0,0,121.74,257.12Z" transform="translate(-0.5 -1.99)"/><polygon class="cls-1" points="123.09 255.91 121.78 255.35 121.78 255.35 121.78 255.35 121.78 255.35 121.78 255.35 121.78 255.35 121.78 255.35 121.78 255.35 123.09 255.91"/><polygon class="cls-1" points="121.78 255.35 121.78 255.35 121.78 255.35 121.78 255.35"/><path class="cls-1" d="M122.28,257.35h0Z" transform="translate(-0.5 -1.99)"/><path class="cls-1" d="M122.58,257.76Z" transform="translate(-0.5 -1.99)"/><path class="cls-1" d="M122.44,256.44l0-.33c0,.59-.1,0-.11.27l0-.12c-.16-.1-.11.48,0,.73l-.07-.16a2.05,2.05,0,0,1,.12.28l-.08-.17c-.27-.49.13.33-.08,0l.23.4a.53.53,0,0,0,.09.21.86.86,0,0,0-.07-.1h0l-.07-.06h0l0,0,0,0h0l.06.07.15.23.16.25a0,0,0,0,1,0,0l-.27-.44h0v0l0,.09s0,0,0,0l0-.1s0,0,0,.07l0,.16h0l0-.07,0-.09s0,0,0,0l-.08-.4a2.56,2.56,0,0,1,.09.39v0a1.07,1.07,0,0,1,0-.38.66.66,0,0,1,.16-.32.64.64,0,0,1-.28,0h0l-.33,0h0c-.16,0,.11,0,.1,0s0,0,0,0,0,0,.32.25c-.12,0-.09.16,0,.4l-.14-.12c.23.34-.55-.29-.36-.06-.16-.14,0,.07.11.31s.1.49,0,.22c-.13-.44,0-.18-.09.07s-.29.47-.12,0a2.41,2.41,0,0,1,.19-.37l0-.06.11-.11a2.58,2.58,0,0,1-.92.41c.2-.18,0-.15-.16-.21s-.24-.16.28-.27c-.34,0-.13-.07.14-.09s.6,0,.5,0l-.23,0c.7.12-1-.22.07,0h0c.52.13-1.22-.32-.6-.18l-.25-.07c-.07-.05.29.08.39.09s-.45-.14-.31-.11a6.15,6.15,0,0,1,.94.3l0,0h0l.17.07,0,0-.09,0-.18-.07-.35-.15-.62-.26.36.16-.46-.18c-.06,0-.61-.18-.85-.21l0,0c.44.18.16.12.09.13l-.22-.06c-.45-.1.86.3.1.08a.45.45,0,0,1,.13.4c.3,0,0,.08.55.09-.67,0-.84.08-.81.11s-.13,0-.11,0c-.86.11.8.05-.25.16.74-.05-.22.15.65.08l-.44.07c0,.1-.25.28-.25.38.64-.09-.23.3.65.07-.17.1-.48.34-.11.27l-.11,0c.08.06.19.15.7-.09-.74.45-.56.4-.77.59.37-.16.36,0,.71-.12-.29.27.18-.05-.24.34.54-.23.74-.3.9-.13a11.13,11.13,0,0,0,.71,1v0a4.65,4.65,0,0,0,.13-1.43.37.37,0,0,1,0,.14c0-.11.18.44.23.32a1.13,1.13,0,0,1,0,.18c0-.25.3.41.2,0l.06.14,0-.21c.07.18.17.44.13.4.32,0,.41-.34.41-.6s-.07-.49.06-.53l.13.13-.21-.25.13.13c.29.17-.08-.23,0-.21s.21.18.3.24c-.39-.36.58.36-.27-.32l.3.23c-.21-.31-.15-.37.06-.38-.8-.56,0-.22-.65-.63l.18.08c-.59-.35.12-.17,0-.35.09,0-.14-.11-.15-.15h.24c-.46-.06-.25-.07-.07-.18s.27-.37-.2-.14l.28-.18c-.43.28.06-.22-.59.38l.19-.19c-.42.4-.29.33-.21.17s.15-.4,0-.06l.08-.19c-.08.14-.13.26-.08.07l0-.14c.16-.81-.16.05-.17,0l0-.38c-.07.45-.09,0-.14.23v-.18l0,.26v-.37C122.51,256.07,122.48,256.39,122.44,256.44Z" transform="translate(-0.5 -1.99)"/><path class="cls-1" d="M122.2,256.94h0Z" transform="translate(-0.5 -1.99)"/><path class="cls-1" d="M120.12,256.63h0Z" transform="translate(-0.5 -1.99)"/></g></g></svg>