<svg xmlns="http://www.w3.org/2000/svg" viewBox="0 0 507.3 354.5"><defs><style>.cls-1{fill:#2f2f2f;}.cls-2{fill:none;stroke:#2f2f2f;stroke-miterlimit:10;}</style></defs><g id="Calque_2" data-name="Calque 2"><g id="Calque_1-2" data-name="Calque 1"><path class="cls-1" d="M.14,133.14q5.1-7.44,10.49-14.68c3.55-4.86,7.25-9.59,11-14.33Q32.73,89.94,44.23,76c7.69-9.25,15.53-18.4,23.62-27.31S84.29,31.08,93.18,22.89c4.45-4.07,9-8,13.88-11.67A71.51,71.51,0,0,1,122.8,1.87,23.34,23.34,0,0,1,132.05,0a12.41,12.41,0,0,1,4.8,1.14,12.14,12.14,0,0,1,3.94,3A21.66,21.66,0,0,1,145,12.6a51.5,51.5,0,0,1,1.56,9.08,117.37,117.37,0,0,1,0,18.18c-.42,6-1.12,12-2,18-1.72,11.94-4,23.76-6.61,35.52-5.2,23.5-11.46,46.74-18.11,69.85s-14,46-20.89,69.05c-3.46,11.52-6.88,23.05-10.51,34.51s-7.4,22.88-11.22,34.28L65.73,335.22c-.94,2.84-1.88,5.69-2.78,8.54-.45,1.42-.9,2.85-1.31,4.27s-.84,2.89-1.07,4.15c0,.15,0,.29,0,.35-.43.56,1.25-.84-2.25-1.25-.78.5-.32.26-.38.22s.14-.22.22-.36c.32-.56.64-1.23,1-1.88.61-1.33,1.2-2.7,1.77-4.07,1.15-2.75,2.26-5.54,3.35-8.33,4.37-11.17,8.55-22.44,12.74-33.7l12-34,24-68c8.11-22.64,16.26-45.26,24.81-67.75s17.18-45,27.51-66.79c2.59-5.45,5.24-10.88,8.27-16.18q1.13-2,2.39-3.93a30,30,0,0,1,2.85-3.82A7.31,7.31,0,0,1,181,40.92a3.16,3.16,0,0,1,1-.26,2.68,2.68,0,0,1,1.32.25,3.2,3.2,0,0,1,1.4,1.51A8.73,8.73,0,0,1,185.5,45c.11.81.17,1.6.2,2.39a77.53,77.53,0,0,1-.35,9.18c-.25,3-.58,6-.95,9-.74,6-1.64,11.94-2.6,17.89-1.92,11.88-4.1,23.71-6.34,35.53s-4.56,23.61-6.94,35.4q-7.16,35.36-14.73,70.6l-7.6,35.25c-2.52,11.75-5.07,23.49-7.8,35.2s-5.38,23.43-7.48,35.24c-.53,2.95-1,5.92-1.33,8.87-.08.73-.15,1.47-.17,2.18a5.54,5.54,0,0,0,0,.95c0,.31.28-.29-.85-.29-.33.19-.07,0,0-.07a13.52,13.52,0,0,0,.84-1.9c.26-.69.51-1.39.75-2.09,1.88-5.66,3.52-11.45,5.22-17.21,3.37-11.53,6.67-23.09,10.15-34.61s7-23,10.7-34.45q11.06-34.34,23.23-68.31,6.12-17,12.66-33.79c4.4-11.2,8.89-22.37,14-33.32,1.28-2.73,2.61-5.45,4.11-8.12a30.72,30.72,0,0,1,2.56-3.94,7.91,7.91,0,0,1,.89-1,4.31,4.31,0,0,1,.63-.48,2.34,2.34,0,0,1,1.09-.37,1.91,1.91,0,0,1,1.46.61,2.49,2.49,0,0,1,.53.9,6.31,6.31,0,0,1,.3,1.4,27.52,27.52,0,0,1-.09,4.74c-.13,1.53-.31,3-.51,4.54-.41,3-.89,6-1.38,9-2,11.89-4.3,23.69-6.62,35.49s-4.74,23.57-7.18,35.32-4.88,23.51-7.18,35.29-4.48,23.58-6.19,35.44A296.29,296.29,0,0,0,185,301.25q-.12,4.47,0,8.94c.05,3,.18,5.94.46,8.89a66.76,66.76,0,0,0,1.27,8.73,29.51,29.51,0,0,0,2.88,8.09,10.57,10.57,0,0,0,5.94,5.26,17,17,0,0,0,8.37,0,42.82,42.82,0,0,0,8.35-2.77,70.39,70.39,0,0,0,7.91-4.08,87.54,87.54,0,0,0,14.28-10.68,85.25,85.25,0,0,0,11.83-13.22,107.25,107.25,0,0,0,9-15.39l1.93-4,1-2.05c.17-.35.35-.69.55-1.05.11-.17.21-.35.34-.54a3.65,3.65,0,0,1,.54-.64c-.28-.79,2.47,0,2,.83a3.6,3.6,0,0,1-.09.8c-.09.42-.2.8-.31,1.17-.22.74-.45,1.46-.69,2.18L259.13,296a128.56,128.56,0,0,0-4.79,17.23,35.5,35.5,0,0,0-.66,8.75,11.25,11.25,0,0,0,1,4.05,5.72,5.72,0,0,0,1.13,1.6,3.58,3.58,0,0,0,.75.58c.14.08.27.18.42.25l.45.19a9.21,9.21,0,0,0,4.05.49,22.56,22.56,0,0,0,4.25-.8,53.77,53.77,0,0,0,8.24-3.2,136.15,136.15,0,0,0,15.49-8.88,122.24,122.24,0,0,0,26.84-23.53,149.36,149.36,0,0,0,19.61-29.91q4-8,7.27-16.38c2.16-5.56,4.08-11.23,5.79-16.95a260.27,260.27,0,0,0,7.83-34.92q1.34-8.85,1.89-17.8a111.94,111.94,0,0,0-.18-17.85,37,37,0,0,0-1.77-8.62,7,7,0,0,0-2.14-3.43c-1.05-.71-2.5,0-3.51,1a29.68,29.68,0,0,0-5.12,7.19c-1.44,2.61-2.74,5.31-4,8.05-4.84,11-8.76,22.34-12.48,33.74s-7.09,22.95-10.3,34.53-6.2,23.2-9,34.87q-2.12,8.76-4.05,17.55c-1.26,5.86-2.55,11.73-3.52,17.62s-1.67,11.87-1,17.7a15.77,15.77,0,0,0,2.82,7.95,8.14,8.14,0,0,0,3.23,2.48,11,11,0,0,0,4.13.76,25,25,0,0,0,8.56-1.78,59.45,59.45,0,0,0,8.07-3.82,110.63,110.63,0,0,0,14.83-10.13.16.16,0,0,1,.23,0,.17.17,0,0,1,0,.22,111.45,111.45,0,0,1-14.63,10.6,61.44,61.44,0,0,1-8.09,4.11,26.09,26.09,0,0,1-8.94,2.14,12.31,12.31,0,0,1-4.7-.74,9.65,9.65,0,0,1-3.92-2.85c-2.09-2.53-2.88-5.72-3.3-8.75a48.5,48.5,0,0,1-.13-9.17c.21-3,.61-6,1.08-9,2-11.91,4.78-23.61,7.62-35.3s6-23.31,9.28-34.87,6.8-23.08,10.58-34.5,7.82-22.77,12.76-33.77c1.25-2.74,2.58-5.45,4.05-8.1a30.31,30.31,0,0,1,5.37-7.38,6.43,6.43,0,0,1,2-1.3,3.12,3.12,0,0,1,2.57.1,7.63,7.63,0,0,1,3,3.8,26.25,26.25,0,0,1,1.35,4.43c.34,1.49.6,3,.8,4.5a115,115,0,0,1,.78,18.16c-.15,6.05-.7,12.08-1.44,18.08a203.21,203.21,0,0,1-21.78,68.83,165.23,165.23,0,0,1-20.24,30,132.81,132.81,0,0,1-27,24.09,111.6,111.6,0,0,1-15.73,9.09,52.1,52.1,0,0,1-8.61,3.16,25.22,25.22,0,0,1-4.61.77,10.87,10.87,0,0,1-4.81-.66l-.58-.26c-.19-.1-.36-.22-.55-.34a4.83,4.83,0,0,1-1-.79,7.34,7.34,0,0,1-1.47-2.06,13,13,0,0,1-1.15-4.65,37,37,0,0,1,.65-9.19,131.83,131.83,0,0,1,4.7-17.52l1.39-4.29c.23-.71.45-1.42.65-2.12.1-.35.19-.7.25-1a2,2,0,0,0,.05-.32c-.36.34,1.79,1.08,1.27.61a1.19,1.19,0,0,0-.17.23c-.08.12-.17.27-.25.42-.17.3-.33.62-.49.95l-1,2-1.9,4.1a102.74,102.74,0,0,1-9,15.8,70.18,70.18,0,0,1-12.33,13.42,114,114,0,0,1-14.75,10.63,60.18,60.18,0,0,1-16.72,7.34,19,19,0,0,1-9.46.18,11.12,11.12,0,0,1-4.35-2.39,16,16,0,0,1-3.08-3.77,31.66,31.66,0,0,1-3.38-8.74,68.91,68.91,0,0,1-1.46-9.08,133.17,133.17,0,0,1-.3-18.19c1.23-24.15,4.61-48,8.56-71.77q3-17.82,6.61-35.5t7.65-35.25c2.65-11.72,5.45-23.41,7.78-35.16.58-2.94,1.12-5.88,1.56-8.83.22-1.47.42-2.94.57-4.4a22.86,22.86,0,0,0,.14-4.26,3.36,3.36,0,0,0-.15-.8c0-.1-.07-.14,0-.08a.65.65,0,0,0,.46.17c.26-.06-.05,0-.22.22a6.08,6.08,0,0,0-.63.68,28.74,28.74,0,0,0-2.37,3.6c-1.46,2.56-2.79,5.24-4.08,7.93-5.07,10.83-9.51,22-13.84,33.19s-8.44,22.49-12.49,33.79q-12.1,33.94-23.12,68.26c-7.43,22.85-14.43,45.82-21.32,68.86-1.75,5.75-3.49,11.5-5.53,17.21-.26.71-.53,1.42-.82,2.13a15,15,0,0,1-1.06,2.18,1.7,1.7,0,0,1-.8.75c-1.57.14-1.38-1.05-1.46-1a7.35,7.35,0,0,1,0-1.3c0-.8.13-1.56.23-2.31.39-3,.94-6,1.46-8.95L136.08,295c2.22-11.82,4.72-23.58,7.25-35.32l7.57-35.26c5-23.5,10.14-47,15-70.52s9.53-47.11,13.31-70.82c.93-5.92,1.81-11.85,2.53-17.79a117.12,117.12,0,0,0,1.13-17.74q-.06-1.08-.21-2.1a6.21,6.21,0,0,0-.47-1.71c-.1-.19-.21-.25-.07-.15a.4.4,0,0,0,.22,0s0,0-.05,0a5.19,5.19,0,0,0-1.2,1.07,41.76,41.76,0,0,0-4.6,7.3c-2.75,5.25-5.18,10.72-7.55,16.21s-4.63,11-6.85,16.62l-6.63,16.72c-4.39,11.17-8.8,22.34-13.07,33.56Q129.54,168.84,117,202.64l-25,67.65L79.56,304.12c-4,11.33-8.06,22.65-12.29,33.93-1.06,2.81-2.14,5.63-3.27,8.44-.57,1.4-1.15,2.8-1.78,4.21-.32.71-.64,1.41-1.06,2.16q-.15.27-.36.6c-.28.26,0,.36-1.13,1-4-.28-2.21-2.36-2.65-2.09a5.08,5.08,0,0,1,.08-.77,44.83,44.83,0,0,1,1.1-4.59c.41-1.47.84-2.92,1.28-4.36q1.32-4.33,2.7-8.63c3.69-11.46,7.52-22.85,11.32-34.25l11.6-34.13,11.82-34.06c7.76-22.75,14.67-45.77,21.22-68.89S130.89,116.4,136,92.94c2.53-11.72,4.8-23.51,6.47-35.38.83-5.93,1.5-11.88,1.89-17.84a115.47,115.47,0,0,0,0-17.84,49,49,0,0,0-1.52-8.66,19.47,19.47,0,0,0-3.76-7.54A9.59,9.59,0,0,0,132,2.36a21,21,0,0,0-8.28,1.73,69.07,69.07,0,0,0-15.14,9.07c-4.75,3.59-9.27,7.52-13.66,11.57-8.77,8.13-17,16.83-25.08,25.73S54,68.5,46.34,77.76s-15.12,18.66-22.5,28.13c-3.69,4.73-7.34,9.5-11.09,14.19s-7.48,9.41-11.3,14a.81.81,0,0,1-1.15.11A.83.83,0,0,1,.14,133.14Z"/><circle class="cls-1" cx="272.86" cy="247.06" r="1.72"/><path class="cls-2" d="M274.58,247.1a1.72,1.72,0,1,1-1.68-1.76A1.72,1.72,0,0,1,274.58,247.1Z"/><path class="cls-1" d="M378.94,287a32.77,32.77,0,0,0-6.39-1.92,27.07,27.07,0,0,0-6.53-.4A21,21,0,0,0,354.09,289a21.27,21.27,0,0,0-4.37,4.71l-.47.67-.4.7c-.26.48-.56.94-.8,1.42a28.56,28.56,0,0,0-1.27,3,25.23,25.23,0,0,0-1.42,6.37,24,24,0,0,0,.23,6.5,17.61,17.61,0,0,0,2.15,6,14.29,14.29,0,0,0,4.17,4.68,17.2,17.2,0,0,0,12,3.22,14.48,14.48,0,0,0,5.84-2,17.88,17.88,0,0,0,4.65-4.26,23.71,23.71,0,0,0,4.77-11.86,67,67,0,0,0,.1-13.44c-.1-1.12-.22-2.25-.38-3.35a15.46,15.46,0,0,0-.29-1.58s0-.1,0-.08-.1,0,.33.28a.76.76,0,0,0,1-.31c0-.12,0,.08,0,.18s-.08.52-.11.8c-.22,2.22-.23,4.51-.25,6.78,0,4.55.24,9.11.7,13.63.24,2.25.54,4.5,1,6.71A20.18,20.18,0,0,0,383.2,324a2.82,2.82,0,0,0,.87.93.86.86,0,0,0,.84.06,6,6,0,0,0,2.1-1.94,36.87,36.87,0,0,0,3.33-5.75c2-4.06,3.55-8.34,5.18-12.6s3.35-8.49,5.15-12.74a65.14,65.14,0,0,1,3-6.33,17.67,17.67,0,0,1,1-1.59,7.27,7.27,0,0,1,.71-.82,3.45,3.45,0,0,1,1.29-.84,2.33,2.33,0,0,1,1.29,0,2.31,2.31,0,0,1,1,.65,3.46,3.46,0,0,1,.71,1.27,9.6,9.6,0,0,1,.4,2,46.66,46.66,0,0,1,0,7.09c-.12,2.32-.32,4.61-.54,6.9-.45,4.57-1,9.12-1.68,13.64-.33,2.27-.69,4.52-1,6.78-.14,1.13-.31,2.26-.4,3.38,0,.56-.09,1.12-.09,1.64a3.08,3.08,0,0,0,0,.33v0c-.06,0,.09-.09-.44-.46a1,1,0,0,0-1,.17l-.09.11s0,0,0,0l0-.13.11-.36c.53-2.12.95-4.43,1.44-6.65s1-4.49,1.58-6.72a113.38,113.38,0,0,1,4.28-13.15,116.92,116.92,0,0,1,5.72-12.61,56.19,56.19,0,0,1,3.63-6,14,14,0,0,1,2.46-2.77,4.55,4.55,0,0,1,.92-.59,2.45,2.45,0,0,1,1.36-.28,2.1,2.1,0,0,1,1.4.68,3.35,3.35,0,0,1,.66,1,13.57,13.57,0,0,1,.82,3.66c.12,1.18.18,2.35.25,3.51.1,2.32.15,4.62.1,6.92-.08,4.59-.39,9.15-.46,13.68,0,2.27,0,4.53.07,6.75.06,1.11.16,2.21.32,3.28a11.14,11.14,0,0,0,.74,2.92,2.05,2.05,0,0,0,.54.79c.07,0,.13.07.15.06s0,0,.12,0a2.78,2.78,0,0,0,.83-.68,12.43,12.43,0,0,0,.95-1.21c1.24-1.78,2.41-3.79,3.68-5.72a52.27,52.27,0,0,1,8.95-10.77,39.58,39.58,0,0,1,5.66-4.24,63,63,0,0,1,6.17-3.24,53.06,53.06,0,0,0,11.31-7.24,47.77,47.77,0,0,0,5-4.51,16.82,16.82,0,0,0,2-2.53,5.56,5.56,0,0,0,1-2.67,2.6,2.6,0,0,0-1.07-2.13,8.23,8.23,0,0,0-2.7-1.34,25.22,25.22,0,0,0-6.46-1h.12a20.33,20.33,0,0,0-11,4,19.39,19.39,0,0,0-6.18,9.86,31.73,31.73,0,0,0-1,12,29.53,29.53,0,0,0,3.51,11.49,16.21,16.21,0,0,0,8.71,7.63,17.84,17.84,0,0,0,11.68-.6,24.9,24.9,0,0,0,9.82-6.82,23.5,23.5,0,0,0,3.35-5,23.26,23.26,0,0,0,2-5.66,25.93,25.93,0,0,0-.12-12,21.47,21.47,0,0,0-5.66-10.37,17.36,17.36,0,0,0-10.6-4.73,18.46,18.46,0,0,0-5.9.31,7.67,7.67,0,0,0-1.33.43,2.92,2.92,0,0,0-.53.28.87.87,0,0,0-.22.18.3.3,0,0,0,0-.17s0,0,0,0a1.82,1.82,0,0,0,.32.37,6.24,6.24,0,0,0,1.08.82,23.29,23.29,0,0,0,5.5,2.36,28,28,0,0,0,5.93,1.12,22.74,22.74,0,0,0,11.61-2.47,39.76,39.76,0,0,0,9.72-7.36,65.12,65.12,0,0,0,7.72-9.67.42.42,0,0,1,.58-.12.43.43,0,0,1,.13.56,58.62,58.62,0,0,1-7.41,10.2,38,38,0,0,1-9.95,7.93c-1,.47-1.94.94-2.94,1.33l-1.54.52c-.26.08-.51.18-.77.25l-.8.17-1.6.34c-.53.1-1.08.1-1.62.15s-1.09.1-1.63.11-1.09,0-1.63-.06a29.55,29.55,0,0,1-6.34-1.18,25,25,0,0,1-6-2.55,8.33,8.33,0,0,1-1.4-1.06,3.46,3.46,0,0,1-.67-.83,2.11,2.11,0,0,1-.24-.71,1.69,1.69,0,0,1,.16-.93,2.58,2.58,0,0,1,.86-.92,5.49,5.49,0,0,1,.85-.46,10.83,10.83,0,0,1,1.64-.54,20.66,20.66,0,0,1,6.55-.38,21.22,21.22,0,0,1,6.33,1.61,18.09,18.09,0,0,1,5.46,3.67,23.48,23.48,0,0,1,6.15,11.33,28.22,28.22,0,0,1,.09,12.83,25.57,25.57,0,0,1-5.82,11.44A27,27,0,0,1,473,318.62a19.56,19.56,0,0,1-12.84.6,18,18,0,0,1-9.82-8.32,31.11,31.11,0,0,1-3.92-12.22,34.05,34.05,0,0,1,.94-12.82,20.93,20.93,0,0,1,6.94-11,22.53,22.53,0,0,1,12.19-4.42h.11a26.28,26.28,0,0,1,7.05,1.09,10.29,10.29,0,0,1,3.39,1.73,5.2,5.2,0,0,1,1.34,1.65,4,4,0,0,1,.37,1.05l.09.56a4.86,4.86,0,0,1,0,.54,7.53,7.53,0,0,1-1.31,3.7,19.7,19.7,0,0,1-2.25,2.83,63.14,63.14,0,0,1-5.13,4.73,55.23,55.23,0,0,1-11.61,7.7,58.31,58.31,0,0,0-5.91,3.23,37.41,37.41,0,0,0-5.23,4.07A52.69,52.69,0,0,0,439,313.72c-1.23,1.9-2.34,3.86-3.7,5.84a14.74,14.74,0,0,1-1.16,1.49,5.19,5.19,0,0,1-1.85,1.4,2.93,2.93,0,0,1-1.54.22,3.19,3.19,0,0,1-1.43-.56,4.76,4.76,0,0,1-1.49-1.92,13.75,13.75,0,0,1-1-3.69c-.17-1.2-.26-2.38-.32-3.55-.11-2.34-.09-4.65,0-7,.13-4.6.35-9.17.61-13.72.11-2.27.29-4.54.32-6.79a30.9,30.9,0,0,0-.09-3.34,9.69,9.69,0,0,0-.6-3c-.19-.42-.39-.54-.37-.48a1.76,1.76,0,0,0-.79.44,12,12,0,0,0-2,2.37,48.58,48.58,0,0,0-3.32,5.81,171.82,171.82,0,0,0-9.65,25.37q-1,3.25-1.82,6.57c-.59,2.21-1.08,4.39-1.74,6.68,0,.15-.1.3-.16.46s-.06.16-.11.27a1.12,1.12,0,0,1-.08.17,1.86,1.86,0,0,1-.21.28,1.06,1.06,0,0,1-1.17.23c-.59-.4-.46-.53-.54-.63a1.47,1.47,0,0,1-.07-.26c0-.06,0-.13,0-.18s0-.36,0-.52c0-.63.05-1.2.09-1.78l.29-3.45.61-6.84L406.86,300c.2-2.27.36-4.53.46-6.79a45.12,45.12,0,0,0-.1-6.6,7.32,7.32,0,0,0-.28-1.37c-.05-.16-.15-.31-.09-.23a.76.76,0,0,0,.32.19.79.79,0,0,0,.44,0c.13,0,0,0-.11.12a5.57,5.57,0,0,0-.41.48,15.17,15.17,0,0,0-.83,1.29,65.87,65.87,0,0,0-2.89,6c-1.8,4.15-3.41,8.43-5.23,12.64-.91,2.11-1.85,4.2-2.84,6.28s-2,4.16-3,6.22a39.35,39.35,0,0,1-3.71,6,12.31,12.31,0,0,1-1.26,1.37,5.17,5.17,0,0,1-1.76,1.12,2.77,2.77,0,0,1-2.44-.26,4.44,4.44,0,0,1-1.43-1.56,22.32,22.32,0,0,1-2.12-6.82c-.41-2.29-.67-4.58-.87-6.87-.41-4.58-.58-9.17-.61-13.76,0-2.3,0-4.58.1-6.92,0-.29,0-.59.08-.91a2.27,2.27,0,0,1,.16-.64.86.86,0,0,1,1.11-.44c.49.31.37.38.45.45a2.69,2.69,0,0,1,.13.32,17.23,17.23,0,0,1,.42,1.77c.23,1.15.41,2.29.56,3.44.32,2.31.49,4.6.63,6.91a47.08,47.08,0,0,1-.08,7,29.08,29.08,0,0,1-1.46,7,22.67,22.67,0,0,1-3.51,6.37,20.67,20.67,0,0,1-5.43,4.93,16.52,16.52,0,0,1-7,2.35,19.91,19.91,0,0,1-13.85-3.94,16.93,16.93,0,0,1-4.8-5.54,21.74,21.74,0,0,1-2.37-6.84,26,26,0,0,1-.27-7.15l.07-.9.14-.88c.1-.59.17-1.18.3-1.76a32,32,0,0,1,2.32-6.77c.26-.54.58-1.05.87-1.58l.44-.78.52-.74a23.36,23.36,0,0,1,4.89-5.33,22.72,22.72,0,0,1,13.46-4.69A24.86,24.86,0,0,1,379.43,286a.54.54,0,0,1,.17.74.53.53,0,0,1-.66.21Z"/><circle class="cls-1" cx="505.41" cy="308.05" r="1.38"/><circle class="cls-2" cx="505.41" cy="308.05" r="1.38"/></g></g></svg>